<svg id="Layer_1" data-name="Layer 1" xmlns="http://www.w3.org/2000/svg" viewBox="0 0 111.59 191.82"><defs><style>.cls-1{fill:#fff;}</style></defs><title>logo</title><g id="svgg"><path class="cls-1" d="M343.11,203.66c0-.28,0-.51-.09-.51s-.09-.12-.09-.26-.05-.28-.13-.31a.24.24,0,0,1-.13-.22c0-.18-.19-.41-.34-.41a.1.1,0,0,1-.09-.11.39.39,0,0,0-.17-.23.39.39,0,0,1-.17-.23.1.1,0,0,0-.1-.11.46.46,0,0,1-.24-.16c-.35-.39-2.2-.67-2.4-.36a.3.3,0,0,1-.22.09.25.25,0,0,0-.22.13.24.24,0,0,1-.21.13c-.09,0-.16,0-.16.09s-.06.09-.13.09-.13,0-.13.09a.4.4,0,0,1-.12.21.41.41,0,0,1-.22.12.09.09,0,0,0-.09.09c0,.1-.21.34-.31.34s-.29.29-.3.45,0,.15-.09.15-.09.05-.09.12a.35.35,0,0,1-.13.22.45.45,0,0,0-.13.31c0,.11,0,.2-.09.2s-.09.29-.09.69c0,.67.09.94.33.94,0,0,.11.06.13.13s.18.13.46.13c.56,0,.83-.29,1-1,.23-1.06,1.46-2,2.06-1.56,1,.73,1,1.84-.28,6.4-.12.42-.28,1.07-.36,1.44a1.54,1.54,0,0,1-.27.72c-.09,0-.12.2-.12.59s0,.55-.11.58a3.68,3.68,0,0,0,0,2c.1.1.14.3.14.74a1.5,1.5,0,0,0,.09.65.53.53,0,0,1,.09.35c0,.2,0,.29.13.29s.13.08.13.21,0,.21.09.21.09.1.09.21,0,.21.09.21.09.1.09.21,0,.21.13.21.13.08.13.21,0,.21.09.21.09.08.09.17a.25.25,0,0,0,.13.22.28.28,0,0,1,.13.25c0,.11,0,.2.09.2s.09.08.09.17.06.17.13.17a.13.13,0,0,1,.13.13c0,.31,1,.17,1.36-.19s.44-1.31.16-1.31c-.09,0-.13-.09-.13-.3s0-.3-.09-.3-.09-.1-.09-.22a.3.3,0,0,0-.13-.27.24.24,0,0,1-.13-.21c0-.09,0-.16-.09-.16s-.09-.13-.09-.3,0-.3-.09-.3-.09-.13-.09-.28a.87.87,0,0,0-.13-.45,12.34,12.34,0,0,1,0-3.75c.09,0,.13-.18.13-.52s0-.47.09-.47.09-.19.09-.43,0-.43.09-.43.09-.15.09-.33,0-.35.13-.38.13-.17.13-.39,0-.34.09-.34.09-.17.09-.38,0-.39.13-.42.13-.17.13-.44,0-.39.09-.39.09-.3.09-.72,0-.73.11-.76.14-.94,0-1S343.11,204,343.11,203.66Z" transform="translate(-321.78 -152.32)"/><path class="cls-1" d="M348.64,200.09v0a.68.68,0,0,1,.09-.29h0v-.06l0,0a3.34,3.34,0,0,0-.09,1.28,2.45,2.45,0,0,1,0-.4A2.31,2.31,0,0,1,348.64,200.09Z" transform="translate(-321.78 -152.32)"/><path class="cls-1" d="M338.5,321.44h0c0,.13,0,.27,0,.4h0c0,.06,0,.11,0,.17h0c0,.09,0,.19,0,.28h0s0,.07,0,.1c0,.3,0,.61,0,.91h0c0,.11,0,.22,0,.33h0s0,.08,0,.11c0-.58,0-1.45,0-2.59C338.5,321.29,338.5,321.36,338.5,321.44Z" transform="translate(-321.78 -152.32)"/><path class="cls-1" d="M348.63,341.14l-.28-1.19c-.07-.3-.18-.78-.25-1.07l-.38-1.72c-.35-1.57-1-4.86-1.18-5.56l-.27-1.37c-.31-1.55-.64-3.26-.74-3.77-.38-2.06-.83-4.63-1.05-6l-.16-1-.21-1.33c-.08-.47-.17-1.11-.22-1.41s-.14-1-.22-1.5-.18-1.19-.21-1.5-.15-1.13-.26-1.84c-.33-2.27-.63-4.45-.92-6.63-.17-1.3-.65-1.73-1.34-1.2-.36.27-.33,1.63.09,4.88,0,.35.14,1.16.22,1.8s.17,1.43.21,1.75.11.79.13,1,.11.87.18,1.41l.21,1.54c0,.31.14,1,.22,1.54l.22,1.5c.15,1,.26,1.78.4,2.55.07.43.17,1,.22,1.33.08.53.14.86.57,3.23.32,1.78.35,2,.59,3.17.34,1.73,1.18,5.87,1.27,6.25,0,.19.26,1.15.48,2.14s.53,2.38.7,3.08.34,1.46.39,1.67.14.58.2.81l.12.43,1,0a8.51,8.51,0,0,0,1,0s-.13-.55-.29-1.18S348.71,341.49,348.63,341.14Z" transform="translate(-321.78 -152.32)"/><path class="cls-1" d="M338.64,335.88h0a.25.25,0,0,1,0,.08h0a1,1,0,0,1,0,.13h0s0,.09,0,.13h0a1.85,1.85,0,0,1,0,.27h0c0,.11,0,.22,0,.32h0a1.83,1.83,0,0,1,0,.22h0s0,.07,0,.11h0s0,.07,0,.1h0c0,.05,0,.1,0,.15A3.63,3.63,0,0,0,338.64,335.88Z" transform="translate(-321.78 -152.32)"/><path class="cls-1" d="M413.26,319.61c.34-1.77.83-4.74,1.25-7.53l.39-2.61c.38-2.47.8-6.11.92-8,.09-1.29-.14-1.8-.81-1.8-.26,0-.28,0-.28-.26s-.07-.32-.39,0-.36.7-.44,2.66c0,.72-.08,1.05-.17,1.14s-.13.33-.13.84,0,.72-.09.72-.09.3-.09.73,0,.73-.09.73-.09.3-.09.72,0,.73-.13.77-.13.2-.13.65,0,.6-.09.6-.09.28-.09.68,0,.69-.13.72-.13.19-.13.65a1.49,1.49,0,0,1-.09.65,1.4,1.4,0,0,0-.09.63,1.45,1.45,0,0,1-.13.74,1.35,1.35,0,0,0-.13.7,1.25,1.25,0,0,1-.09.59,1.47,1.47,0,0,0-.09.65c0,.34,0,.59-.09.59s-.09.23-.09.5,0,.52-.13.55-.13.19-.13.57,0,.52-.09.52-.09.24-.09.56,0,.6-.13.69a.86.86,0,0,0-.13.54.85.85,0,0,1-.09.47,1,1,0,0,0-.09.51,1,1,0,0,1-.09.51,1.27,1.27,0,0,0-.09.59c0,.4,0,.56-.13.59s-.13.19-.13.57,0,.52-.09.52-.09.18-.09.39a.84.84,0,0,1-.13.52.87.87,0,0,0-.13.55c0,.23,0,.42-.09.42s-.09.18-.09.41a1.19,1.19,0,0,1-.13.57,1,1,0,0,0-.13.49.59.59,0,0,1-.09.37.85.85,0,0,0-.09.47.86.86,0,0,1-.09.47.87.87,0,0,0-.09.48c0,.32,0,.42-.13.42s-.13.11-.13.51,0,.51-.09.51-.09.19-.09.42,0,.43-.13.47-.13.17-.13.44,0,.39-.09.39-.09.16-.09.36a1.08,1.08,0,0,1-.13.53.86.86,0,0,0-.13.44.49.49,0,0,1-.09.33,1,1,0,0,0-.09.52c0,.26,0,.47-.09.47s-.09.19-.09.43,0,.43-.13.43-.13.1-.13.38a.75.75,0,0,1-.09.43.72.72,0,0,0-.09.42c0,.25,0,.39-.13.42s-.13.17-.13.44,0,.39-.09.39-.09.18-.09.39a.84.84,0,0,1-.13.52.68.68,0,0,0-.13.42.51.51,0,0,1-.09.34.75.75,0,0,0-.09.43c0,.21,0,.38-.09.38s-.09.19-.09.43,0,.43-.13.43-.13.1-.13.39,0,.39-.09.39-.09.19-.09.43,0,.43-.13.43-.13.1-.13.43,0,.43-.09.43-.09.15-.09.34v.34h2.08l.06-.24c0-.13.31-1.16.61-2.29.52-1.95,1.52-5.88,2-7.83.12-.49.25-1,.3-1.2s.14-.57.22-.9l.22-.94.22-.94.23-1c.1-.43.18-.77.38-1.71.15-.7.25-1.12.38-1.71s.73-3.56.92-4.58Z" transform="translate(-321.78 -152.32)"/><path class="cls-1" d="M373.87,219.85c-.27,0-.47-.09-.41-.18s-.1-.07-.34.14c-.57.48-.67,1.58-.15,1.58a.1.1,0,0,1,.1.09,3.6,3.6,0,0,0,1,.94.09.09,0,0,1,.09.09.48.48,0,0,0,.34.34.09.09,0,0,1,.09.09c0,.13.18.29.5.43.15.07.28.17.28.23s.1.11.22.11.22,0,.22.09.05.09.12.09a.2.2,0,0,1,.17.13.3.3,0,0,0,.26.13.37.37,0,0,1,.27.09.3.3,0,0,0,.23.09.5.5,0,0,1,.31.13c.1.1.38.13,1.34.13s1.22,0,1.26-.13.16-.13.34-.13.29,0,.29-.09.06-.09.13-.09a.13.13,0,0,0,.13-.13c0-.07.08-.13.18-.13s.43-.19.43-.34.07-.09.15-.09.46-.19.46-.29.09-.17.33-.43a.41.41,0,0,0,.11-.21c0-.05.06-.09.13-.09s.13-.08.13-.17,0-.17.09-.17.09-.07.09-.17a.29.29,0,0,1,.1-.22c.06,0,.07-.17,0-.31a.76.76,0,0,1,0-.44c.54-1-.15-2-1-1.48a1.31,1.31,0,0,0-.39.45,6.88,6.88,0,0,1-1.2,1.76c-1.37,1.33-2.93,1-5.23-1C374.16,219.9,374.09,219.85,373.87,219.85Z" transform="translate(-321.78 -152.32)"/><path class="cls-1" d="M401.75,198.25a.63.63,0,0,1-.13-.39c0-.14,0-.26-.09-.26s-.09-.14-.09-.3,0-.32-.13-.35-.13-.16-.13-.3,0-.25-.09-.25-.09-.08-.09-.17a.25.25,0,0,0-.13-.22.2.2,0,0,1-.13-.17c0-.07,0-.12-.09-.12s-.09-.1-.09-.21,0-.21-.09-.21-.09-.06-.09-.12a.72.72,0,0,0-.22-.34.77.77,0,0,1-.22-.3s-.06-.09-.13-.09-.13-.08-.13-.17,0-.17-.09-.17-.09-.06-.09-.13,0-.13-.09-.13-.34-.21-.34-.3-.24-.3-.34-.3-.09-.06-.09-.13a.13.13,0,0,0-.13-.13c-.07,0-.13,0-.13-.09s-.08-.09-.17-.09-.17-.06-.17-.13a.13.13,0,0,0-.13-.13c-.07,0-.13,0-.13-.09s-.08-.09-.17-.09-.17,0-.17-.09-.05-.09-.12-.09a.2.2,0,0,1-.17-.13.25.25,0,0,0-.23-.13c-.1,0-.18,0-.18-.09s-.14-.09-.3-.09-.3,0-.3-.13-.09-.13-.3-.13-.3,0-.3-.09-.17-.09-.38-.09a1.65,1.65,0,0,1-.63-.13,4.13,4.13,0,0,0-2.08,0,1.29,1.29,0,0,1-.62.13,1,1,0,0,0-.5.09.53.53,0,0,1-.35.09.7.7,0,0,0-.42.13.51.51,0,0,1-.31.13c-.1,0-.18,0-.18.09s-.1.09-.22.09-.22,0-.22.13-.08.13-.22.13-.22,0-.22.09-.07.09-.16.09a.67.67,0,0,0-.37.21.7.7,0,0,1-.32.21c-.13,0-.36.21-.36.32s-.53.31-.76.19-.23-.09-.26,0-.13.11-.25.11-.21,0-.21.13a.13.13,0,0,1-.13.13.15.15,0,0,1-.13-.16.73.73,0,0,0-.58-.53,1,1,0,0,0-.64.67.24.24,0,0,1-.13.21c-.11,0-.13.23-.13,1s0,1,.13,1,.13.16.13.34,0,.29.09.29.09.1.09.21,0,.21.13.21.13.08.13.18c0,.29.21.42.69.42a.93.93,0,0,1,.58.13.3.3,0,0,0,.5,0c.1-.1.33-.13.91-.13s.79,0,.83-.13c.1-.26,2.82-.12,4,.22.5.14,1.63.53,1.74.59a4.93,4.93,0,0,0,.59.22,1.46,1.46,0,0,1,.5.22s.1.08.22.11.21.1.21.16a.18.18,0,0,0,0,0,.35.35,0,0,1,.13.09h.06a2.45,2.45,0,0,1,.93.38.38.38,0,0,1,.28.1,8.84,8.84,0,0,1,1.12.16s.08,0,.1,0l0-.11.5.12c1,.24,1.63.16,2.06-.27a.72.72,0,0,1,.35-.21C401.93,199.22,401.94,198.43,401.75,198.25Z" transform="translate(-321.78 -152.32)"/><path class="cls-1" d="M433.26,342.61l-.05,1.52h-2.07v-4.57c0-3.89,0-4.61-.13-4.81a6.9,6.9,0,0,1-.13-2.19,10.32,10.32,0,0,0-.09-2,6.8,6.8,0,0,1-.09-1.58c0-1.15,0-1.54-.11-1.56s-.12-.38-.14-1.27a6.36,6.36,0,0,0-.11-1.32,4.65,4.65,0,0,1-.08-1.13,3.64,3.64,0,0,0-.09-1.1,3.45,3.45,0,0,1-.09-1.06c0-.79,0-1-.13-1.12s-.13-.31-.13-1a2.26,2.26,0,0,0-.09-.93c-.05,0-.09-.34-.09-.85s0-.87-.13-1-.13-.29-.13-.78a1.79,1.79,0,0,0-.09-.72,1.68,1.68,0,0,1-.09-.7c0-.46,0-.68-.13-.77s-.13-.3-.13-.68,0-.55-.09-.55-.09-.23-.09-.51a1.15,1.15,0,0,0-.09-.56,1.27,1.27,0,0,1-.09-.59c0-.4,0-.56-.13-.59s-.13-.18-.13-.52a1,1,0,0,0-.09-.52.72.72,0,0,1-.09-.42c0-.25,0-.39-.13-.42s-.13-.18-.13-.48a.88.88,0,0,0-.09-.48.84.84,0,0,1-.09-.47c0-.29,0-.43-.13-.46s-.13-.17-.13-.44,0-.39-.09-.39-.09-.13-.09-.3,0-.3-.09-.3-.09-.13-.09-.29a.59.59,0,0,0-.13-.4.65.65,0,0,1-.13-.44c0-.18,0-.33-.09-.33s-.09-.13-.09-.29,0-.31-.13-.34-.13-.16-.13-.3a.44.44,0,0,0-.09-.31.53.53,0,0,1-.09-.35c0-.2,0-.29-.13-.29s-.13-.09-.13-.3,0-.3-.09-.3-.09-.1-.09-.21,0-.21-.09-.21-.09-.13-.09-.3,0-.3-.13-.3-.13-.08-.13-.21,0-.21-.09-.21-.09-.13-.09-.29,0-.31-.13-.34a.25.25,0,0,1-.13-.22c0-.1,0-.17-.09-.17s-.09-.1-.09-.21,0-.21-.09-.21-.09-.13-.09-.3,0-.3-.13-.3-.13-.08-.13-.21,0-.21-.09-.21-.09-.1-.09-.21,0-.21-.13-.21-.13-.08-.13-.21,0-.21-.09-.21-.09-.1-.09-.21,0-.21-.13-.21-.13-.08-.13-.17,0-.17-.09-.17a.1.1,0,0,1-.09-.11c0-.2-.21-.57-.33-.57s-.11-.1-.11-.21,0-.21-.09-.21-.09-.07-.09-.16a.24.24,0,0,0-.13-.21.25.25,0,0,1-.13-.22c0-.1,0-.17-.09-.17s-.09-.05-.09-.12a.2.2,0,0,0-.13-.17.21.21,0,0,1-.13-.18.62.62,0,0,0-.17-.32.63.63,0,0,1-.17-.34.14.14,0,0,0-.13-.15c-.07,0-.13-.08-.13-.18s-.19-.42-.34-.42-.09-.08-.09-.18a.93.93,0,0,0-.3-.46,1,1,0,0,1-.3-.43c0-.15-.2-.39-.32-.39s-.13-.13-.2-.3-.17-.3-.23-.3a.1.1,0,0,1-.11-.09.77.77,0,0,0-.22-.3.74.74,0,0,1-.22-.32.39.39,0,0,0-.17-.23.39.39,0,0,1-.17-.23.1.1,0,0,0-.09-.11.48.48,0,0,1-.34-.34.09.09,0,0,0-.08-.09s-.11-.08-.14-.19-.42-.59-.56-.59a.09.09,0,0,1-.09-.09.48.48,0,0,0-.34-.34.09.09,0,0,1-.09-.08,4,4,0,0,0-1-.95.09.09,0,0,1-.08-.09.48.48,0,0,0-.34-.34.09.09,0,0,1-.09-.09c0-.1-.21-.34-.3-.34a.62.62,0,0,1-.3-.3c0-.09-.24-.3-.34-.3a.1.1,0,0,1-.09-.11c0-.06-.14-.17-.3-.23s-.3-.17-.3-.23,0-.11-.07-.11a1.24,1.24,0,0,1-.54-.5.09.09,0,0,0-.09-.1c-.09,0-.18-.07-.47-.32a.42.42,0,0,0-.21-.11.09.09,0,0,1-.09-.09s-.06-.09-.13-.09-.13,0-.13-.09a.48.48,0,0,0-.36-.34c-.16,0-.42-.21-.42-.33s-.06-.1-.13-.1-.13,0-.13-.09-.08-.09-.17-.09-.17-.06-.17-.13,0-.13-.09-.13-.18-.07-.47-.32a.42.42,0,0,0-.21-.11.09.09,0,0,1-.09-.09s-.06-.09-.13-.09-.13,0-.13-.09-.08-.09-.17-.09-.17-.06-.17-.13a.13.13,0,0,0-.13-.13c-.07,0-.13,0-.13-.09s-.07-.09-.16-.09a.52.52,0,0,1-.32-.21.55.55,0,0,0-.36-.21c-.11,0-.2,0-.2-.08s-.09-.11-.2-.14a.88.88,0,0,1-.34-.22.51.51,0,0,0-.33-.16c-.11,0-.19-.05-.19-.13a.14.14,0,0,0-.15-.13c-.19,0-.46-.2-.46-.33s-.1-.1-.22-.1-.22,0-.22-.09-.07-.09-.16-.09a.8.8,0,0,1-.4-.21.81.81,0,0,0-.36-.21c-.07,0-.13,0-.13-.09s-.1-.09-.22-.09-.22,0-.22-.13-.08-.13-.22-.13-.22,0-.22-.09-.08-.09-.18-.09a.25.25,0,0,1-.23-.13.24.24,0,0,0-.21-.13c-.09,0-.16,0-.16-.09s-.06-.09-.13-.09-.13,0-.13-.09-.1-.09-.22-.09-.22,0-.22-.13-.08-.13-.22-.13-.22,0-.22-.09-.1-.09-.22-.09-.22,0-.22-.13-.08-.13-.22-.13-.22,0-.22-.09-.08-.09-.17-.09-.17-.06-.17-.13-.08-.13-.22-.13-.22,0-.22-.09-.1-.09-.22-.09-.22,0-.22-.09-.09-.09-.21-.09a.29.29,0,0,1-.26-.13c0-.07-.16-.13-.31-.13s-.26,0-.26-.09-.08-.09-.18-.09a.25.25,0,0,1-.23-.13.29.29,0,0,0-.26-.13c-.11,0-.21,0-.21-.09s-.1-.09-.22-.09-.22,0-.22-.13-.08-.13-.22-.13-.22,0-.22-.09-.07-.09-.17-.09a5,5,0,0,1-1.24-.52.75.75,0,0,0-.28-.08.13.13,0,0,1-.13-.13c0-.09-.09-.13-.26-.13a.45.45,0,0,1-.31-.09.36.36,0,0,0-.27-.09c-.12,0-.21,0-.21-.09s-.08-.09-.18-.09a.25.25,0,0,1-.23-.13.29.29,0,0,0-.26-.13c-.11,0-.21,0-.21-.09s-.1-.09-.22-.09-.22,0-.22-.13-.09-.13-.26-.13a.45.45,0,0,1-.31-.09.36.36,0,0,0-.27-.09c-.13,0-.21,0-.21-.13s-.08-.13-.22-.13-.22,0-.22-.09-.1-.09-.22-.09-.22,0-.22-.09-.08-.09-.18-.09a.25.25,0,0,1-.23-.13.29.29,0,0,0-.26-.13c-.11,0-.21,0-.21-.09s-.08-.09-.17-.09a.22.22,0,0,1-.21-.15c0-.09,0-.06,0,.09s0,.24-.1.24-.09.09-.09.21a.35.35,0,0,1-.09.26.27.27,0,0,0-.09.21.47.47,0,0,1-.13.29.5.5,0,0,0-.13.31c0,.1,0,.18-.09.18s-.09.1-.09.21,0,.21-.13.21-.13.08-.13.21,0,.21-.09.21-.09.08-.09.17a.25.25,0,0,1-.13.22.24.24,0,0,0-.13.21c0,.09,0,.16-.09.16s-.09.1-.09.21,0,.21-.09.21-.09.1-.09.21,0,.21-.13.21-.13.08-.13.21,0,.21-.09.21-.09.08-.09.17a.25.25,0,0,1-.13.22.22.22,0,0,0-.13.19c0,.18-.2.44-.33.44s-.1.1-.1.21,0,.21-.09.21-.09.1-.09.21,0,.21-.09.21-.09.08-.09.17a.25.25,0,0,1-.13.22.2.2,0,0,0-.13.16c0,.15-.28.64-.37.64s-.07.06-.07.13,0,.13-.09.13-.09.1-.09.21,0,.21-.13.21-.13.08-.13.21,0,.21-.09.21-.09.08-.09.17,0,.17-.09.17-.09.06-.09.13a.21.21,0,0,1-.13.18.24.24,0,0,0-.13.21c0,.09,0,.16-.09.16s-.09.08-.09.17-.06.17-.13.17-.13,0-.13.09a.48.48,0,0,1-.34.34.09.09,0,0,0-.09.09,1.26,1.26,0,0,1-.64.6.72.72,0,0,0-.31.1.33.33,0,0,1-.37,0,2.34,2.34,0,0,0-.44-.15c-.13,0-.24-.09-.24-.14a.09.09,0,0,0-.09-.08.49.49,0,0,1-.34-.33s-.06-.1-.13-.13a.25.25,0,0,1-.13-.22c0-.1,0-.17-.09-.17s-.09-.07-.09-.16a.24.24,0,0,0-.13-.21.22.22,0,0,1-.13-.2,2,2,0,0,0-.33-.87.55.55,0,0,1-.11-.33c0-.22-.18-.46-.34-.46s-.11.4,0,.46.13.19.13.6a1.32,1.32,0,0,0,.09.61,1.11,1.11,0,0,1,.09.55c0,.34,0,.53.13.6s.13.27.13.61,0,.5.09.5.09.27.09.63,0,.64.13.68.13.18.13.52,0,.47.09.47.09.26.09.6,0,.6.09.6.09.24.09.55,0,.56.13.6.13.19.13.61,0,.56.09.56.09.21.09.48a1,1,0,0,0,.13.61c.09.09.13.3.13.68s0,.55.09.55.09.21.09.48a1,1,0,0,0,.13.61.86.86,0,0,1,.13.54.85.85,0,0,0,.09.47,1,1,0,0,1,.09.52c0,.26,0,.47.09.47s.09.23.09.5,0,.52.13.55.13.18.13.52,0,.47.09.47.09.21.09.48a1,1,0,0,0,.13.61.86.86,0,0,1,.13.54.85.85,0,0,0,.09.47.85.85,0,0,1,.09.47.85.85,0,0,0,.09.47.84.84,0,0,1,.09.47c0,.29,0,.43.13.46s.13.17.13.44,0,.39.09.39.09.23.09.51,0,.51.13.51.13.1.13.43,0,.43.09.43.09.19.09.42,0,.43.1.45.21.54.3,1.37c0,.22.08.41.12.41s.08.19.08.43,0,.43.13.43.13.1.13.43,0,.43.09.43.09.17.09.38,0,.39.13.43.13.16.13.35a.53.53,0,0,0,.09.35.65.65,0,0,1,.09.4.79.79,0,0,0,.13.47.68.68,0,0,1,.13.42.51.51,0,0,0,.09.34.75.75,0,0,1,.09.43c0,.21,0,.38.09.38s.09.19.09.43,0,.43.13.43.13.1.13.39,0,.39.09.39.09.19.09.43,0,.43.13.43.13.09.13.29a.53.53,0,0,0,.09.35.72.72,0,0,1,.09.42c0,.25,0,.39.13.42s.13.17.13.39a.64.64,0,0,0,.09.39,3,3,0,0,1,0,1.41s-.09.08-.09.17a.25.25,0,0,1-.13.22.28.28,0,0,0-.13.25c0,.11,0,.21-.09.21s-.09.1-.09.21,0,.21-.13.21-.13.08-.13.21,0,.21-.09.21-.09.08-.09.17-.06.17-.13.17-.13.08-.13.21,0,.21-.09.21-.09.06-.09.14c0,.26-.21.71-.32.71s-.12.1-.12.24a1.15,1.15,0,0,1-.17.49,2.55,2.55,0,0,0-.22.41c0,.08-.09.15-.13.15s-.08.08-.08.17-.06.17-.13.17-.13.08-.13.21,0,.21-.09.21-.09.1-.09.21,0,.21-.09.21-.09.1-.09.21,0,.21-.13.21-.13.08-.13.21a.35.35,0,0,1-.09.26.28.28,0,0,0-.09.22.15.15,0,0,1-.13.17c-.08,0-.13.08-.13.21s0,.21-.09.21-.09.08-.09.17-.06.17-.13.17-.13.08-.13.21,0,.21-.09.21-.09.1-.09.21,0,.21-.09.21-.09.08-.09.17a.25.25,0,0,1-.13.22.28.28,0,0,0-.13.25c0,.11,0,.21-.09.21s-.09.08-.09.17a.25.25,0,0,1-.13.22.24.24,0,0,0-.13.21c0,.09,0,.16-.09.16s-.09.1-.09.21,0,.21-.09.21-.09.08-.09.17a.25.25,0,0,1-.13.22.28.28,0,0,0-.13.25c0,.11,0,.21-.09.21s-.09.08-.09.17a.25.25,0,0,1-.13.22.2.2,0,0,0-.13.16c0,.15-.28.64-.37.64s-.07.06-.07.13,0,.13-.09.13-.09.1-.09.21,0,.21-.09.21-.09.08-.09.17a.25.25,0,0,1-.13.22.23.23,0,0,0-.13.21.27.27,0,0,1-.09.21.28.28,0,0,0-.09.22.15.15,0,0,1-.13.17.12.12,0,0,0-.13.11c0,.2-.21.57-.33.57s-.11.08-.11.17,0,.17-.09.17-.09.08-.09.18a.63.63,0,0,1-.2.37,2,2,0,0,0-.29.35c-.29.51-1.86.22-1.86-.34,0-.05-.08-.15-.17-.22a.39.39,0,0,1-.17-.23.12.12,0,0,0-.13-.11c-.07,0-.13-.08-.13-.17s0-.17-.09-.17-.09-.06-.09-.13a.12.12,0,0,0-.11-.13c-.06,0-.16-.13-.23-.28a1.69,1.69,0,0,0-.33-.47.62.62,0,0,1-.2-.32c0-.07,0-.13-.09-.13s-.09-.06-.09-.13a.13.13,0,0,0-.13-.13c-.08,0-.13-.08-.13-.19a.54.54,0,0,0-.22-.35.51.51,0,0,1-.22-.3.4.4,0,0,0-.17-.26.45.45,0,0,1-.17-.32c0-.12-.05-.2-.13-.2a.13.13,0,0,1-.13-.13c0-.07,0-.13-.09-.13s-.09-.07-.09-.16a.24.24,0,0,0-.13-.21.25.25,0,0,1-.13-.22c0-.1,0-.17-.09-.17s-.09-.05-.09-.12a.2.2,0,0,0-.13-.17.21.21,0,0,1-.13-.18.62.62,0,0,0-.17-.32.63.63,0,0,1-.17-.34.14.14,0,0,0-.13-.15c-.08,0-.13-.08-.13-.21s0-.21-.09-.21-.09-.1-.09-.21,0-.21-.09-.21-.34-.23-.34-.42-.06-.18-.13-.18-.13-.08-.13-.17a.64.64,0,0,0-.17-.36.63.63,0,0,1-.17-.34.14.14,0,0,0-.13-.15c-.08,0-.13-.08-.13-.21s0-.21-.09-.21-.09-.1-.09-.21,0-.21-.1-.21-.33-.26-.33-.44a.22.22,0,0,0-.13-.19.25.25,0,0,1-.13-.22c0-.1,0-.17-.09-.17s-.09-.08-.09-.18a.71.71,0,0,0-.22-.39.72.72,0,0,1-.22-.34c0-.07,0-.12-.09-.12s-.09-.1-.09-.21,0-.21-.13-.21-.13-.08-.13-.2a.45.45,0,0,0-.17-.32.45.45,0,0,1-.17-.32c0-.12-.05-.2-.13-.2s-.13-.08-.13-.19a.54.54,0,0,0-.22-.35.52.52,0,0,1-.22-.32c0-.09,0-.16-.09-.16s-.09-.1-.09-.21,0-.21-.09-.21-.34-.23-.34-.42,0-.18-.09-.18-.09-.06-.09-.13a.13.13,0,0,0-.13-.13c-.17,0-.17-.29,0-.46s.13-.31.13-.73,0-.61.09-.61.09-.23.09-.51,0-.51.09-.51.09-.21.09-.47,0-.49.13-.52.13-.18.13-.55a1.12,1.12,0,0,1,.09-.55,1,1,0,0,0,.09-.51c0-.3,0-.49.13-.56s.13-.26.13-.56a1,1,0,0,1,.09-.51.88.88,0,0,0,.09-.48c0-.3,0-.44.13-.48s.13-.18.13-.55,0-.5.09-.5.09-.23.09-.51,0-.51.09-.51.09-.19.09-.42a.87.87,0,0,1,.13-.55,1,1,0,0,0,.13-.61c0-.26,0-.48.09-.48s.09-.23.09-.51,0-.51.13-.51.13-.11.13-.51a1.15,1.15,0,0,1,.09-.56,1.13,1.13,0,0,0,.09-.56,1.22,1.22,0,0,1,.08-.55,1.45,1.45,0,0,0,.12-.58c0-.3.08-.55.14-.56s.1-.22.1-.49a1,1,0,0,1,.09-.51,1,1,0,0,0,.09-.52c0-.34,0-.48.13-.52s.13-.18.13-.55,0-.5.09-.5.09-.23.09-.52,0-.53.13-.57.13-.19.13-.59a1.27,1.27,0,0,1,.09-.59,1,1,0,0,0,.08-.49c.07,0,.12,0,.13-.08,0-.3.09-.6.15-.9l0,0a.54.54,0,0,0,0-.22l0-.1s.07,0,.07-.06a.66.66,0,0,1,0-.08,0,0,0,0,0,0,0v0s.06,0,.06-.06v-.05s0,0,0,0,.05-.16.09-.24h0s0,0,0,0v0c0,.14.1,0,.18-.52.13-.79.2-1.2.73-3.94l.52-2.74.22-1.16.22-1.16c0-.24.18-.95.31-1.58s.26-1.35.3-1.58.12-.61.17-.84c.1-.45.1-.46-.3-1a5.3,5.3,0,0,1-.53-.88c-.26-.56-.31-.6-.44-.43a15,15,0,0,0-.85,2,2.4,2.4,0,0,1-.4,1,.08.08,0,0,0-.08.09.48.48,0,0,1-.34.34.09.09,0,0,0-.09.09c0,.15-.24.34-.43.34s-.18.06-.18.13-1.23.19-1.37,0a1.28,1.28,0,0,0-.4-.23c-.17-.07-.31-.15-.31-.2a.5.5,0,0,0-.34-.32c-.05,0-.09-.06-.09-.13s0-.13-.09-.13-.09-.08-.09-.17-.06-.17-.13-.17a.13.13,0,0,1-.13-.13c0-.07,0-.13-.09-.13s-.09-.07-.09-.16a.24.24,0,0,0-.13-.21.25.25,0,0,1-.13-.22c0-.1,0-.17-.09-.17s-.09-.06-.09-.13,0-.13-.09-.13-.09-.1-.09-.21,0-.21-.13-.21a.15.15,0,0,1-.13-.17.28.28,0,0,0-.09-.22.27.27,0,0,1-.09-.21.23.23,0,0,0-.13-.21.25.25,0,0,1-.13-.22c0-.1,0-.17-.09-.17s-.09-.1-.09-.21,0-.21-.09-.21-.11-.1-.14-.21-.09-.21-.13-.21-.08-.1-.08-.21,0-.21-.09-.21-.09-.09-.09-.21,0-.22-.1-.24a1.68,1.68,0,0,1-.34-.86.14.14,0,0,0-.13-.15c-.08,0-.13-.08-.13-.21s0-.21-.09-.21-.09-.08-.09-.17a.25.25,0,0,0-.13-.22.28.28,0,0,1-.13-.25c0-.11,0-.2-.09-.2s-.09-.12-.09-.26,0-.26-.09-.26-.09-.09-.09-.21a.28.28,0,0,0-.13-.25.29.29,0,0,1-.13-.27c0-.12,0-.22-.09-.22s-.09-.08-.09-.17-.06-.17-.13-.17-.13,0-.13.09-.1.09-.22.09-.22,0-.22.13-.08.13-.22.13-.22,0-.22.09-.08.09-.18.09a.51.51,0,0,0-.31.13.56.56,0,0,1-.34.13c-.12,0-.21,0-.21.09s-.07.09-.16.09a.24.24,0,0,0-.21.13.22.22,0,0,1-.18.13.86.86,0,0,0-.31.09l-.34.17a1,1,0,0,1-.38.09.29.29,0,0,0-.26.13.25.25,0,0,1-.23.13c-.1,0-.18,0-.18.09s-.1.09-.22.09-.22,0-.22.07-.17.14-.37.22l-.52.23a.94.94,0,0,1-.37.08c-.14,0-.22,0-.22.13s-.08.13-.22.13-.22,0-.22.09-.1.09-.22.09-.22,0-.22.13-.08.13-.22.13-.22,0-.22.09-.08.09-.18.09a.51.51,0,0,0-.31.13.56.56,0,0,1-.34.13c-.12,0-.21,0-.21.06s-.42.28-.57.28a.19.19,0,0,0-.15.13.3.3,0,0,1-.27.13c-.12,0-.22,0-.22.09s-.1.09-.22.09-.22,0-.22.13-.08.13-.22.13-.22,0-.22.09-.1.09-.22.09-.22,0-.22.13-.08.13-.22.13-.22,0-.22.09-.09.09-.2.09a.55.55,0,0,0-.36.21.52.52,0,0,1-.32.21c-.09,0-.16,0-.16.09s-.1.09-.22.09-.22,0-.22.13-.08.13-.22.13-.22,0-.22.09-.07.09-.16.09a.24.24,0,0,0-.21.13.25.25,0,0,1-.23.13c-.1,0-.18,0-.18.09s-.06.09-.13.09-.13,0-.13.09-.1.09-.22.09-.22,0-.22.13-.08.13-.17.13-.17,0-.17.09-.06.09-.13.09-.13,0-.13.08-.1.11-.22.14-.22.09-.22.13-.06.08-.13.08a.81.81,0,0,0-.36.21.8.8,0,0,1-.39.21c-.09,0-.16,0-.16.09s-.1.09-.22.09-.22,0-.22.09-.24.34-.43.34-.18,0-.18.09a.5.5,0,0,1-.32.34c-.16,0-.54.22-.54.31s-.14.14-.3.21-.3.15-.3.19-.24.32-.43.32-.18.06-.18.13a.12.12,0,0,1-.11.13.4.4,0,0,0-.24.17.46.46,0,0,1-.32.17c-.11,0-.2,0-.2.09a.48.48,0,0,1-.34.34.1.1,0,0,0-.09.1c0,.13-.27.32-.46.33s-.15,0-.15.09-.21.34-.3.34-.3.24-.3.34-.06.09-.13.09-.13,0-.13.09-.05.09-.12.09a.2.2,0,0,0-.17.13.19.19,0,0,1-.15.13.48.48,0,0,0-.34.34.1.1,0,0,1-.11.09.4.4,0,0,0-.24.17.4.4,0,0,1-.24.17.1.1,0,0,0-.11.09,7.61,7.61,0,0,1-1.38,1.37.09.09,0,0,0-.09.09,3.6,3.6,0,0,1-1,.94c-.05,0-.09.06-.09.13s0,.13-.09.13-.09.07-.09.16a.52.52,0,0,1-.22.32c-.12.09-.22.19-.22.23s-.23.32-.34.32-.14.13-.2.3-.16.3-.22.3a.1.1,0,0,0-.11.09.48.48,0,0,1-.34.34c-.05,0-.09.09-.09.2a.45.45,0,0,1-.17.32.39.39,0,0,0-.17.23.12.12,0,0,1-.13.11c-.07,0-.13.08-.13.18s-.19.42-.34.42-.09.07-.09.15a.63.63,0,0,1-.17.34.64.64,0,0,0-.17.27s-.06.09-.13.09-.13.08-.13.21,0,.21-.09.21-.09.06-.09.13a.21.21,0,0,1-.13.18.2.2,0,0,0-.13.17c0,.07,0,.12-.09.12s-.09.08-.09.17a.25.25,0,0,1-.13.22.24.24,0,0,0-.13.21c0,.09,0,.16-.09.16s-.09.06-.09.13,0,.13-.09.13-.09.08-.09.17a.25.25,0,0,1-.13.22.28.28,0,0,0-.13.25c0,.11,0,.21-.09.21s-.09.06-.09.13a.21.21,0,0,1-.13.18.19.19,0,0,0-.13.15c0,.19-.22.56-.33.56s-.11.1-.11.21,0,.21-.09.21-.09.1-.09.21,0,.21-.09.21-.09.08-.09.17-.06.17-.13.17-.13.09-.13.3,0,.3-.09.3-.09.09-.09.21a.28.28,0,0,1-.13.25.25.25,0,0,0-.13.22c0,.1,0,.17-.09.17s-.09.09-.09.2a.45.45,0,0,1-.13.31.45.45,0,0,0-.13.31c0,.11,0,.2-.09.2s-.09.1-.09.21,0,.21-.09.21-.09.11-.09.25a.52.52,0,0,1-.13.35.44.44,0,0,0-.13.31.34.34,0,0,1-.09.25.36.36,0,0,0-.09.26.29.29,0,0,1-.13.26c-.08,0-.13.16-.13.34s0,.29-.09.29-.09.13-.09.3,0,.3-.13.3-.13.1-.13.39,0,.39-.09.39-.09.15-.09.34,0,.34-.09.34-.09.14-.09.3,0,.32-.13.35-.13.17-.13.42,0,.38-.09.38-.09.13-.09.29a.69.69,0,0,1-.13.42.84.84,0,0,0-.13.52c0,.22,0,.39-.09.39s-.09.19-.09.43,0,.43-.09.43-.09.19-.09.42a.87.87,0,0,1-.13.55,1,1,0,0,0-.13.61c0,.26,0,.48-.09.48s-.09.23-.09.51,0,.51-.13.51-.13.12-.13.55a1.31,1.31,0,0,1-.09.6,1.29,1.29,0,0,0-.09.6c0,.37,0,.59-.13.67s-.13.31-.13.77a1.68,1.68,0,0,1-.09.7,2,2,0,0,0-.09.78c0,.42,0,.72-.09.72s-.09.31-.09.75a2.49,2.49,0,0,1-.13,1,2.85,2.85,0,0,0-.13,1.13,2.56,2.56,0,0,1-.08.89,3.82,3.82,0,0,0-.11,1.08c0,.77-.06,1.09-.14,1.12s-.11.34-.11,1.18a3.31,3.31,0,0,1-.09,1.15,3.76,3.76,0,0,0-.09,1.23c0,1,0,1.24-.13,1.28s-.13.31-.13,1.68a6.34,6.34,0,0,1-.09,1.63,9.79,9.79,0,0,0-.09,2,11.35,11.35,0,0,1-.09,2.1c-.06,0-.09,1.61-.09,4.46v4.4h-2.17v-1.78c0-1,0-1.91,0-2.08-.06-1.36.11-9.94.2-10a6.88,6.88,0,0,0,.1-1.92,9.18,9.18,0,0,1,.09-1.87,5.22,5.22,0,0,0,.09-1.36c0-1,0-1.34.13-1.47s.13-.43.13-1.25a3.89,3.89,0,0,1,.09-1.14,3.45,3.45,0,0,0,.09-1.06c0-.79,0-1,.13-1.12s.13-.3.13-.95a2.61,2.61,0,0,1,.09-.89,2.22,2.22,0,0,0,.09-.81,2.22,2.22,0,0,1,.09-.81,1.58,1.58,0,0,0,.09-.67,1.51,1.51,0,0,1,.13-.79,1.55,1.55,0,0,0,.13-.79c0-.35,0-.62.09-.62s.09-.24.09-.56,0-.57.13-.61.13-.18.13-.55a1.12,1.12,0,0,1,.09-.55,1,1,0,0,0,.09-.52c0-.34,0-.48.13-.52s.13-.18.13-.55,0-.5.09-.5.09-.19.09-.43,0-.43.09-.43.09-.17.09-.38a.82.82,0,0,1,.13-.51.84.84,0,0,0,.13-.52c0-.22,0-.39.09-.39s.09-.14.09-.3,0-.32.13-.35.13-.17.13-.42,0-.38.09-.38.09-.14.09-.3,0-.32.13-.35.13-.16.13-.34,0-.29.09-.29.09-.15.09-.34a.63.63,0,0,1,.09-.39.33.33,0,0,0,.09-.25.69.69,0,0,1,.13-.36.71.71,0,0,0,.13-.36c0-.11,0-.19.09-.19s.09-.13.09-.3,0-.3.13-.3.13-.09.13-.3,0-.3.09-.3.09-.1.09-.21,0-.21.13-.21.13-.09.13-.3,0-.3.09-.3.09-.1.09-.21,0-.21.09-.21.09-.09.09-.21a.54.54,0,0,1,.13-.34.5.5,0,0,0,.13-.31c0-.1,0-.18.09-.18s.09-.1.09-.21,0-.21.13-.21.13-.08.13-.21,0-.21.09-.21.09-.1.09-.21,0-.21.09-.21.09-.08.09-.17a.25.25,0,0,1,.13-.22.28.28,0,0,0,.13-.25c0-.11,0-.2.09-.2s.09-.08.09-.17a.25.25,0,0,1,.13-.22.24.24,0,0,0,.13-.21c0-.09,0-.16.09-.16s.09-.1.09-.21,0-.21.13-.21.13-.08.13-.21,0-.21.07-.21.12-.13.19-.3.17-.3.23-.3.11-.09.11-.21,0-.21.09-.21.09-.07.09-.16a.52.52,0,0,1,.22-.32.54.54,0,0,0,.22-.35c0-.12.05-.19.13-.19a.13.13,0,0,0,.13-.13c0-.07,0-.13.09-.13s.09-.07.09-.15.2-.45.33-.45.1-.08.1-.18.19-.42.34-.42.09-.1.09-.21,0-.21.09-.21.09-.06.09-.13a.13.13,0,0,1,.13-.13c.07,0,.13-.08.13-.17s0-.17.09-.17A.09.09,0,0,0,333,289a.51.51,0,0,1,.32-.34s.13-.13.19-.28.55-.75.68-.75a1.24,1.24,0,0,0,.27-.43c.11-.23.24-.43.29-.43a.49.49,0,0,0,.33-.34.09.09,0,0,1,.09-.09c.1,0,.34-.21.34-.3s.09-.17.33-.43a.42.42,0,0,0,.11-.17c0-.09.24-.3.34-.3a.09.09,0,0,0,.09-.09.48.48,0,0,1,.34-.34.09.09,0,0,0,.09-.09,3.6,3.6,0,0,1,1-.94.09.09,0,0,0,.09-.09.4.4,0,0,1,.12-.21.41.41,0,0,1,.22-.12.1.1,0,0,0,.09-.1c0-.13.27-.32.46-.33s.15,0,.15-.09.21-.34.3-.34.3-.24.3-.34a.09.09,0,0,1,.09-.09.48.48,0,0,0,.34-.34c0-.05.06-.09.13-.09s.13,0,.13-.09.08-.09.17-.09.17-.06.17-.13a.12.12,0,0,1,.11-.13.4.4,0,0,0,.24-.17.4.4,0,0,1,.23-.17.19.19,0,0,0,.15-.13.21.21,0,0,1,.18-.13c.07,0,.13,0,.13-.09s.06-.09.13-.09.13,0,.13-.1.26-.32.42-.33a1.08,1.08,0,0,0,.4-.3.94.94,0,0,1,.47-.3c.1,0,.18,0,.18-.09s.24-.34.43-.34.18,0,.18-.1.27-.32.46-.33.15,0,.15-.09.06-.09.13-.09a.13.13,0,0,0,.13-.13c0-.07.08-.13.18-.13s.43-.19.43-.34.09-.09.2-.09a.55.55,0,0,0,.36-.21.52.52,0,0,1,.32-.21c.09,0,.16,0,.16-.09s.06-.09.13-.09.13,0,.13-.09.07-.09.16-.09a.24.24,0,0,0,.21-.13.25.25,0,0,1,.23-.13c.1,0,.18,0,.18-.09s.1-.09.22-.09.22,0,.22-.13a.13.13,0,0,1,.13-.13c.07,0,.13,0,.13-.09s.07-.09.16-.09a.24.24,0,0,0,.21-.13.25.25,0,0,1,.23-.13c.1,0,.18,0,.18-.09s.1-.09.22-.09.22,0,.22-.09.06-.09.13-.09.13,0,.13-.08.49-.35.66-.35a.2.2,0,0,0,.16-.13.25.25,0,0,1,.23-.13c.1,0,.18,0,.18-.09s.09-.09.21-.09a.29.29,0,0,0,.26-.13.25.25,0,0,1,.23-.13c.1,0,.18,0,.18-.09s.1-.09.22-.09.22,0,.22-.09.07-.09.16-.09a.24.24,0,0,0,.21-.13.25.25,0,0,1,.23-.13c.1,0,.18,0,.18-.09s.09-.09.21-.09a.29.29,0,0,0,.26-.13.25.25,0,0,1,.23-.13c.1,0,.18,0,.18-.09s.1-.09.22-.09.22,0,.22-.09.1-.09.22-.09.22,0,.22-.13.08-.13.22-.13.22,0,.22-.09.14-.09.3-.09.3,0,.3-.13.08-.13.22-.13.22,0,.22-.09.07-.09.16-.09a.24.24,0,0,0,.21-.13.22.22,0,0,1,.18-.13.86.86,0,0,0,.31-.09l.34-.17a1,1,0,0,1,.38-.09.29.29,0,0,0,.26-.13.25.25,0,0,1,.23-.13c.1,0,.18,0,.18-.09s.09-.09.21-.09a.29.29,0,0,0,.26-.13.25.25,0,0,1,.22-.13.3.3,0,0,0,.22-.09.43.43,0,0,1,.3-.09c.14,0,.27-.06.3-.13a.25.25,0,0,1,.23-.13c.1,0,.18,0,.18-.09s.1-.09.22-.09.22,0,.22-.09.14-.09.3-.09.3,0,.3-.13.08-.13.22-.13.22,0,.22-.09.1-.09.22-.09.22,0,.22-.13.08-.13.22-.13.22,0,.22-.09.14-.09.3-.09.3,0,.3-.34,0-.34-.09-.34-.09-.17-.09-.37a.69.69,0,0,0-.13-.48c-.09-.07-.13-.26-.13-.56a1,1,0,0,0-.09-.51,14.64,14.64,0,0,1,0-3.21s.09-.17.09-.39,0-.4.13-.44.13-.16.13-.34,0-.29.09-.29.09-.1.09-.21,0-.21.09-.21.09-.08.09-.17a.25.25,0,0,1,.13-.22.24.24,0,0,0,.13-.21c0-.09,0-.16.09-.16s.09-.1.09-.21,0-.21.11-.21.16-.12.23-.28a2,2,0,0,1,.41-.55A.91.91,0,0,0,365,259a.22.22,0,0,1,.13-.19c.07,0,.13-.09.13-.13a.49.49,0,0,1,.34-.33.09.09,0,0,0,.09-.09c0-.1.21-.34.3-.34s.3-.24.3-.34a.08.08,0,0,1,.07-.09s.12-.11.19-.24.12-.21.15-.09c.09.38.8-.22.8-.68,0-.2,0-.27.12-.23a.14.14,0,0,0,.17-.09.22.22,0,0,1,.19-.13c.16,0,.39-.2.39-.34a.09.09,0,0,1,.09-.09.48.48,0,0,0,.34-.34c0-.05.06-.09.13-.09s.15,0,.13-.6a1,1,0,0,0-.14-.52,1,1,0,0,1-.12-.53c0-.23,0-.41-.11-.44s-.07-.07,0-.14l0,0s.08,0,.08,0v0a.3.3,0,0,0,0-.08l0,0v0a.46.46,0,0,0,0-.23.64.64,0,0,0-.35-.41,1.43,1.43,0,0,0-.26-.15c-.12-.06-.45-.17-.83-.3,0,0-.08,0-.14,0l-1.16-.37-.05,0a.25.25,0,0,0-.16,0h0l-.05,0-.14,0h0l-.1,0h0a3.18,3.18,0,0,1-.65-.14.58.58,0,0,0-.25,0l-.6-.15h-.2s0,0,0,0-.12-.09-.26-.09-.26,0-.26-.08-.14-.1-.3-.13-.3-.09-.3-.14-.1-.08-.22-.08l-.13,0-.07,0a0,0,0,0,1,0,0s-.1-.09-.22-.09h0l-.2-.1a.1.1,0,0,1,0,0c0-.08-.08-.13-.22-.13h-.08l-.14-.08h0s-.06-.07-.13-.08l-.34-.21,0,0-.33-.23,0,0a4.75,4.75,0,0,0-.43-.31,8.62,8.62,0,0,0-1.06-.69s.06,0,0,0l-.23-.1h0l0,0,0,0a1.71,1.71,0,0,0-.36-.1c-.46-.29-.92-.57-1.4-.82a.48.48,0,0,0-.36-.29.55.55,0,0,1-.3-.21c-.09-.12-.2-.21-.23-.21s-.31-.23-.31-.34a.09.09,0,0,0-.09-.09c-.1,0-.34-.21-.34-.3a.62.62,0,0,0-.3-.3c-.09,0-.3-.24-.3-.34a.09.09,0,0,0-.09-.09.48.48,0,0,1-.34-.34.11.11,0,0,0-.12-.09c-.06,0-.21-.17-.32-.39s-.25-.39-.32-.39a.11.11,0,0,1-.12-.09,1.13,1.13,0,0,0-.3-.37.93.93,0,0,1-.3-.47c0-.1,0-.18-.09-.18a.48.48,0,0,1-.34-.34.09.09,0,0,0-.09-.09s-.09-.08-.09-.17-.06-.17-.13-.17a.13.13,0,0,1-.13-.13c0-.07,0-.13-.09-.13s-.09-.06-.09-.13a.65.65,0,0,0-.22-.33.66.66,0,0,1-.22-.38c0-.1,0-.18-.09-.18s-.34-.23-.34-.42,0-.18-.09-.18-.09-.1-.09-.21,0-.21-.09-.21-.34-.23-.34-.42-.06-.18-.13-.18-.13-.08-.13-.21,0-.21-.09-.21-.09-.06-.09-.13,0-.13-.07-.13-.37-.5-.37-.65,0-.12-.09-.12-.09-.1-.09-.21,0-.21-.13-.21-.13-.08-.13-.21,0-.21-.09-.21-.09-.09-.09-.21a.28.28,0,0,0-.13-.25.25.25,0,0,1-.13-.22c0-.1,0-.17-.09-.17s-.09-.1-.09-.21,0-.21-.09-.21-.09-.08-.09-.18a.5.5,0,0,0-.13-.31.48.48,0,0,1-.13-.29c0-.09,0-.17-.09-.17s-.09-.09-.09-.21a.28.28,0,0,0-.13-.25.29.29,0,0,1-.13-.26.36.36,0,0,0-.09-.26.34.34,0,0,1-.09-.25.27.27,0,0,0-.13-.25.29.29,0,0,1-.13-.26.36.36,0,0,0-.09-.26.44.44,0,0,1-.09-.3c0-.14,0-.25-.09-.25s-.09-.13-.09-.3,0-.3-.13-.3-.13-.09-.13-.3,0-.3-.09-.3-.09-.13-.09-.29,0-.31-.13-.34-.13-.16-.13-.35,0-.3-.09-.3-.09-.12-.09-.26a.63.63,0,0,0-.13-.39.78.78,0,0,1-.13-.46c0-.18,0-.34-.09-.34s-.09-.13-.09-.29a.53.53,0,0,0-.09-.35.88.88,0,0,1-.09-.48c0-.3,0-.44-.13-.48s-.13-.17-.13-.47v-.42h-1a2.81,2.81,0,0,1-1-.09s-.18-.09-.39-.09-.41,0-.44-.13-.16-.13-.34-.13-.29,0-.29-.09-.07-.09-.16-.09-.71-.25-.71-.35-.06-.08-.12-.08-.66-.28-.66-.36-.06-.06-.13-.06-.13,0-.13-.09-.06-.09-.13-.09a.66.66,0,0,1-.34-.21.85.85,0,0,0-.26-.21c-.06,0-.17-.08-.44-.32a.43.43,0,0,0-.18-.11c-.09,0-.3-.24-.3-.34a.09.09,0,0,0-.1-.09,2.84,2.84,0,0,1-.94-1,.15.15,0,0,0-.13-.16c-.07,0-.13,0-.13-.09a.4.4,0,0,0-.12-.21.41.41,0,0,0-.22-.12c-.05,0-.09-.07-.09-.15a1.21,1.21,0,0,0-.3-.49,1.2,1.2,0,0,1-.3-.49c0-.09,0-.16-.09-.16s-.09-.07-.09-.16a.24.24,0,0,0-.13-.21.25.25,0,0,1-.13-.22c0-.1,0-.17-.09-.17s-.09-.06-.09-.13,0-.13-.09-.13-.11-.1-.14-.21-.09-.21-.13-.21-.08-.1-.08-.21,0-.21-.09-.21-.09-.13-.09-.3,0-.3-.13-.3-.13-.08-.13-.21,0-.21-.09-.21-.09-.13-.09-.3,0-.3-.13-.3-.13-.09-.13-.3,0-.3-.09-.3-.09-.13-.09-.29,0-.31-.13-.34-.13-.16-.13-.35,0-.3-.09-.3-.09-.17-.09-.39,0-.39-.09-.39-.09-.23-.09-.52,0-.53-.13-.57-.13-.2-.13-.72a1.8,1.8,0,0,0-.09-.72,28.57,28.57,0,0,1,0-4.45,1.27,1.27,0,0,0,.09-.59c0-.38,0-.57.13-.65a.68.68,0,0,0,.13-.48.72.72,0,0,1,.09-.42.53.53,0,0,0,.09-.35c0-.16,0-.29.09-.29s.09-.09.09-.21a.54.54,0,0,1,.13-.34.5.5,0,0,0,.13-.31c0-.1,0-.18.09-.18s.09-.1.09-.21,0-.21.13-.21.13-.08.13-.21,0-.21.09-.21.09-.08.09-.17a.3.3,0,0,1,.11-.24,1,1,0,0,0,.24-.33c.16-.31.3-.47.43-.47s.09-.1.09-.21,0-.21.09-.21.09-.1.09-.21,0-.21.13-.21.13-.1.13-.43,0-.43.09-.43.09-.23.09-.51,0-.51.08-.51.09-.26.11-.57.08-.59.14-.61.1-.22.1-.54,0-.51.09-.51.09-.19.09-.42a.87.87,0,0,1,.13-.55.84.84,0,0,0,.13-.52c0-.22,0-.39.09-.39s.09-.19.09-.42a.87.87,0,0,1,.13-.55.84.84,0,0,0,.13-.52c0-.22,0-.39.09-.39s.09-.17.09-.38a.75.75,0,0,1,.09-.43.51.51,0,0,0,.09-.34.68.68,0,0,1,.13-.42.72.72,0,0,0,.13-.43c0-.17,0-.31.09-.31s.09-.16.09-.34,0-.36.13-.39.13-.17.13-.38,0-.33.09-.33.09-.13.09-.3,0-.3.13-.3.13-.09.13-.3,0-.3.09-.3.09-.15.09-.34,0-.34.09-.34.09-.12.09-.26.05-.28.13-.31.13-.16.13-.34,0-.29.09-.29.09-.1.09-.21,0-.21.13-.21.13-.09.13-.3,0-.3.09-.3.09-.1.09-.21,0-.21.13-.21.13-.09.13-.3,0-.3.09-.3.09-.1.09-.21,0-.21.09-.21.09-.09.09-.21a.54.54,0,0,1,.13-.34.5.5,0,0,0,.13-.31c0-.1,0-.18.09-.18s.09-.1.09-.21,0-.21.13-.21.13-.08.13-.21,0-.21.09-.21.09-.1.09-.21,0-.21.13-.21.13-.08.13-.21,0-.21.09-.21.09-.08.09-.19.27-.84.36-.84.07-.06.07-.13a1.51,1.51,0,0,1,.35-.64,1.43,1.43,0,0,0,.17-.36c.06-.18.15-.32.19-.32s.07-.08.07-.17a.25.25,0,0,1,.13-.22.23.23,0,0,0,.13-.21.27.27,0,0,1,.09-.21.28.28,0,0,0,.09-.22.15.15,0,0,1,.13-.17c.08,0,.13-.08.13-.21s0-.21.09-.21.09-.06.09-.13a.13.13,0,0,1,.13-.13c.08,0,.13-.08.13-.21s0-.21.09-.21.09-.08.09-.17,0-.17.08-.17.1-.1.13-.21.09-.21.14-.21.09-.06.09-.13,0-.13.09-.13.09-.08.09-.17a.25.25,0,0,1,.13-.22.24.24,0,0,0,.13-.21c0-.09,0-.16.09-.16s.09-.06.09-.13a.13.13,0,0,1,.13-.13c.08,0,.13-.08.13-.21s0-.21.07-.21.12-.13.19-.3.17-.3.23-.3.11-.08.11-.18.19-.42.34-.42.09-.08.09-.18.19-.42.34-.42.09-.1.09-.21,0-.21.09-.21.09-.06.09-.13,0-.13.09-.13.09-.07.09-.16a.52.52,0,0,1,.22-.32.51.51,0,0,0,.22-.3.51.51,0,0,1,.22-.3.54.54,0,0,0,.22-.35c0-.12.05-.19.13-.19a.13.13,0,0,0,.13-.13c0-.07,0-.13.09-.13s.09-.06.09-.14a1,1,0,0,1,.3-.42,1,1,0,0,0,.3-.42.22.22,0,0,1,.13-.19.19.19,0,0,0,.13-.15.4.4,0,0,1,.17-.22.4.4,0,0,0,.17-.26.51.51,0,0,1,.22-.3c.12-.09.22-.21.22-.27a.12.12,0,0,1,.13-.11c.07,0,.13-.08.13-.17s0-.17.09-.17.09-.06.09-.13,0-.13.09-.13a.48.48,0,0,0,.34-.34.09.09,0,0,1,.09-.09s.09-.06.09-.13a.21.21,0,0,1,.13-.18c.07,0,.13-.09.13-.13a.49.49,0,0,1,.34-.33.09.09,0,0,0,.09-.09.48.48,0,0,1,.34-.34c.05,0,.09-.08.09-.19a1.18,1.18,0,0,1,.39-.56,1.74,1.74,0,0,0,.39-.46.09.09,0,0,1,.09-.09.48.48,0,0,0,.34-.34.09.09,0,0,1,.09-.09.5.5,0,0,0,.34-.32.9.9,0,0,1,.22-.31,1.21,1.21,0,0,0,.22-.28c0-.08.25-.29.34-.29a.09.09,0,0,0,.09-.09.48.48,0,0,1,.34-.34.1.1,0,0,0,.09-.1,1.24,1.24,0,0,1,.54-.5s.07,0,.07-.09.21-.34.29-.34a1.22,1.22,0,0,0,.28-.21.82.82,0,0,1,.35-.21.11.11,0,0,0,.12-.09c0-.1.21-.34.3-.34s.3-.24.3-.34a.09.09,0,0,1,.09-.09.87.87,0,0,0,.32-.21.87.87,0,0,1,.32-.21s.15-.08.22-.17a.4.4,0,0,1,.24-.17.12.12,0,0,0,.11-.13c0-.07.08-.13.18-.13s.43-.19.43-.34.06-.09.13-.09.13,0,.13-.09.06-.09.13-.09a.81.81,0,0,0,.36-.21.8.8,0,0,1,.4-.21c.09,0,.16,0,.16-.09s.08-.09.17-.09.17-.06.17-.13a.13.13,0,0,1,.13-.13c.07,0,.13,0,.13-.09s.1-.09.22-.09.22,0,.22-.13.08-.13.22-.13.22,0,.22-.09.08-.09.17-.09a.29.29,0,0,0,.22-.08,1.47,1.47,0,0,1,.8-.35c.11,0,.2,0,.2-.09s.09-.09.21-.09a.46.46,0,0,0,.31-.13.52.52,0,0,1,.35-.13.43.43,0,0,0,.3-.09.63.63,0,0,1,.39-.09c.22,0,.35,0,.38-.13s.17-.13.44-.13a.78.78,0,0,0,.44-.09,1.51,1.51,0,0,1,.65-.09c.4,0,.61,0,.63-.11a21.31,21.31,0,0,1,4.77,0,2.33,2.33,0,0,0,.9.13,1.66,1.66,0,0,1,.69.09.88.88,0,0,0,.48.09.89.89,0,0,1,.55.13.86.86,0,0,0,.52.13.79.79,0,0,1,.45.09.91.91,0,0,0,.49.09c.3,0,.45,0,.48.13s.17.13.39.13.34,0,.34.09.18.09.39.09.39,0,.39.09.14.09.31.09.33,0,.36.13.16.13.34.13.29,0,.29.09.14.09.3.09.3,0,.3.13.09.13.3.13a.55.55,0,0,1,.35.09.46.46,0,0,0,.31.09c.15,0,.28.05.31.13s.16.13.34.13.29,0,.29.09.1.09.22.09.22,0,.22.09.12.09.26.09.28.05.31.13a.29.29,0,0,0,.26.13c.11,0,.21,0,.21.09s.14.09.3.09.3,0,.3.13.08.13.22.13.22,0,.22.09.12.09.26.09.28.05.31.13a.29.29,0,0,0,.26.13c.11,0,.21,0,.21.09s.1.09.22.09.22,0,.22.09.08.09.18.09a.25.25,0,0,1,.23.13.29.29,0,0,0,.26.13c.11,0,.21,0,.21.09s.1.09.22.09.22,0,.22.13.08.13.17.13a.85.85,0,0,1,.33.08l.92.45.93.46c.09,0,.17.11.17.15s.08.07.18.07a.25.25,0,0,1,.23.13.24.24,0,0,0,.21.13c.09,0,.16,0,.16.09s.1.09.22.09.22,0,.22.08.1.1.22.13.22.09.22.14.06.08.13.08.13,0,.13.09.08.09.17.09.17.06.17.13.08.13.22.13.22,0,.22.08.1.1.22.13.22.09.22.14.06.08.13.08.13,0,.13.09.08.09.17.09.17,0,.17.09.06.09.13.09a.13.13,0,0,1,.13.13c0,.07.08.13.18.13s.25,0,.56.32a.42.42,0,0,0,.21.11.09.09,0,0,1,.09.09s.07.09.16.09a.52.52,0,0,1,.32.21.53.53,0,0,0,.27.21.1.1,0,0,1,.11.09s.1.09.22.09.22,0,.22-.17,0-.17.09-.17.09-.1.09-.21,0-.21.13-.21.13-.08.13-.21,0-.21.09-.21.09-.06.09-.13,0-.13.09-.13.09-.08.09-.17.06-.17.13-.17a.13.13,0,0,0,.13-.13c0-.07,0-.13.09-.13s.09-.07.09-.16a.52.52,0,0,1,.22-.32.52.52,0,0,0,.22-.32c0-.17.19-.4.34-.4s.09-.1.09-.21,0-.21.09-.21.09-.06.09-.13,0-.13.09-.13a.46.46,0,0,0,.34-.37.52.52,0,0,1,.22-.28c.12-.09.22-.19.22-.23s.23-.32.34-.32.09-.07.1-.15.2-.45.33-.45a.1.1,0,0,0,.1-.09.48.48,0,0,1,.34-.34.09.09,0,0,0,.09-.09,3.6,3.6,0,0,1,1-.94.09.09,0,0,0,.09-.09.48.48,0,0,1,.34-.34.1.1,0,0,0,.09-.1c0-.13.27-.32.46-.33s.15,0,.15-.09a.51.51,0,0,1,.32-.34s.15-.1.24-.21a.52.52,0,0,1,.32-.21c.09,0,.16,0,.16-.09s.06-.09.13-.09a.13.13,0,0,0,.13-.13c0-.07.08-.13.17-.13s.17,0,.17-.09.1-.09.22-.09.22,0,.22-.13.08-.13.22-.13.22,0,.22-.09.1-.09.22-.09.22,0,.22-.09.17-.09.38-.09a.71.71,0,0,0,.49-.13.5.5,0,0,1,.66,0,.91.91,0,0,0,.45.13c.16,0,.28,0,.28.09a.09.09,0,0,0,.09.09.48.48,0,0,1,.34.34.1.1,0,0,0,.11.09c.15,0,.33.4.33.74,0,.16,0,.28.1.28s.08.12,0,.36-.08.57-.1.81-.08.45-.13.45-.08.09-.08.21a.54.54,0,0,1-.13.34.5.5,0,0,0-.13.31c0,.1,0,.18-.09.18s-.09.1-.09.21,0,.21-.13.21-.13.08-.13.21,0,.21-.09.21-.09.1-.09.21,0,.21-.13.21-.13.08-.13.17,0,.17-.09.17-.09.06-.09.13,0,.13-.09.13-.09.07-.09.16a.52.52,0,0,1-.22.32.54.54,0,0,0-.22.35c0,.12-.05.19-.13.19a.13.13,0,0,0-.13.13c0,.07,0,.13-.09.13s-.09.07-.09.16a.52.52,0,0,1-.22.32.53.53,0,0,0-.22.29c0,.17-.21.43-.33.43a.12.12,0,0,0-.1.13c0,.07,0,.13-.09.13a.09.09,0,0,0-.09.09s.14.09.3.09.3,0,.3-.09.19-.09.42-.09.44,0,.48-.14a3.93,3.93,0,0,1,2,0,.2.2,0,0,0,.18.11c.18,0,.45.2.45.33s.06.1.13.1.13.08.13.21,0,.21.09.21.09.26.09.6,0,.6-.09.6-.09.1-.09.21,0,.21-.13.21a.14.14,0,0,0-.13.15c0,.16-.19.45-.3.45a.6.6,0,0,0-.31.3c0,.09-.24.3-.34.3a.09.09,0,0,0-.09.09.48.48,0,0,1-.34.34.09.09,0,0,0-.09.09.48.48,0,0,1-.34.34.09.09,0,0,0-.09.09s-.08.09-.17.09-.17.06-.17.13a.12.12,0,0,1-.11.13.53.53,0,0,0-.27.21.52.52,0,0,1-.32.21c-.09,0-.16,0-.16.09s-.05.09-.12.09a.2.2,0,0,0-.17.13.21.21,0,0,1-.18.13c-.07,0-.13,0-.13.09s-.1.09-.22.09-.22,0-.22.09-.06.09-.13.09a.13.13,0,0,0-.13.13c0,.08-.08.13-.22.13s-.22,0-.22.09-.08.09-.17.09c-.28,0-.31.33-.06.59a.78.78,0,0,1,.23.38.13.13,0,0,0,.11.15.4.4,0,0,1,.24.17.4.4,0,0,0,.24.17.1.1,0,0,1,.11.09,1.75,1.75,0,0,0,.39.46,1.71,1.71,0,0,1,.39.47c0,.05.06.09.13.09s.13.08.13.17,0,.17.09.17.09.06.09.13,0,.13.09.13.34.21.34.29a1.21,1.21,0,0,0,.22.28.9.9,0,0,1,.22.31.5.5,0,0,0,.34.32.09.09,0,0,1,.09.09.77.77,0,0,0,.22.3.8.8,0,0,1,.22.29,1.37,1.37,0,0,0,.3.39,1.12,1.12,0,0,1,.3.44.46.46,0,0,0,.34.37c.05,0,.09.08.09.17a1,1,0,0,0,.3.48,1.05,1.05,0,0,1,.3.47c0,.09,0,.16.1.16s.33.26.33.45,0,.15.09.15a.09.09,0,0,1,.09.09c0,.08.07.18.33.46a.51.51,0,0,1,.11.3c0,.1.06.18.13.18a.13.13,0,0,1,.13.13c0,.07,0,.13.09.13s.09.08.09.17,0,.17.09.17.09.1.09.21.05.21.11.21.17.13.23.3a.71.71,0,0,0,.23.34.24.24,0,0,1,.12.22c0,.1,0,.17.09.17s.09.09.09.21a.28.28,0,0,0,.13.25.25.25,0,0,1,.13.22c0,.1,0,.17.09.17s.09.1.09.21,0,.21.09.21.09.1.09.21,0,.21.13.21.13.08.13.21,0,.21.09.21.09.07.09.16a.24.24,0,0,0,.13.21.25.25,0,0,1,.13.22c0,.1,0,.17.09.17s.09.07.09.16a1.32,1.32,0,0,0,.15.45c.26.52.29.58.29.71s0,.13.09.13.09.13.09.29,0,.31.13.34a.29.29,0,0,1,.13.26.36.36,0,0,0,.09.26.42.42,0,0,1,.09.3.32.32,0,0,0,.13.29c.08,0,.13.16.13.31s0,.26.09.26.09.12.09.26a.63.63,0,0,0,.13.39.68.68,0,0,1,.13.42.51.51,0,0,0,.09.34.53.53,0,0,1,.09.35c0,.16,0,.29.09.29s.09.19.09.43,0,.43.13.43.13.1.13.43,0,.43.09.43.09.21.09.48a1,1,0,0,0,.13.61c.09.09.13.3.13.67a1.29,1.29,0,0,0,.09.6,4.92,4.92,0,0,1,.09,1.31,4.39,4.39,0,0,0,.1,1.36c.07.07.07.17,0,.37a5.94,5.94,0,0,0-.1,1.25,2.44,2.44,0,0,1-.09,1c-.12,0-.11.37,0,.5a.43.43,0,0,0,.26.1.24.24,0,0,1,.21.13.25.25,0,0,0,.22.13c.18,0,.42.19.42.34s.08.09.18.09.43.19.43.34.06.09.13.09.13,0,.13.07.1.12.22.19.22.15.22.19a.5.5,0,0,0,.34.32.1.1,0,0,1,.09.11.39.39,0,0,0,.17.23c.1.07.17.15.17.19s.08.17.33.45a.51.51,0,0,1,.11.3c0,.1.06.18.13.18a.13.13,0,0,1,.13.13c0,.07,0,.13.09.13s.09.08.09.18a.5.5,0,0,0,.13.31.54.54,0,0,1,.13.34c0,.11,0,.21.09.21s.09.1.09.21,0,.21.09.21.09.13.09.3,0,.3.13.3.13.09.13.29a.53.53,0,0,0,.09.35,1,1,0,0,1,.09.51c0,.33,0,.47.13.51s.13.21.13.78,0,.73.09.73a16.92,16.92,0,0,1,0,3.42c-.05,0-.09.31-.09.76s0,.79-.13.87-.13.27-.13.61,0,.5-.09.5-.09.17-.09.38,0,.39-.13.42-.13.17-.13.39a.64.64,0,0,1-.09.39.53.53,0,0,0-.09.35c0,.16,0,.29-.09.29s-.09.09-.09.2a.7.7,0,0,1-.13.36.72.72,0,0,0-.13.36c0,.11,0,.19-.09.19s-.09.12-.09.26-.05.28-.13.31a.28.28,0,0,0-.13.25c0,.11,0,.21-.09.21s-.09.08-.09.17a.25.25,0,0,1-.13.22.24.24,0,0,0-.13.21c0,.09,0,.16-.09.16s-.09.1-.09.21,0,.21-.09.21-.09.08-.09.17a.25.25,0,0,1-.13.22.24.24,0,0,0-.13.22c0,.18-.19.41-.34.41s-.09.1-.09.21,0,.21-.09.21-.09.06-.09.13a.13.13,0,0,1-.13.13c-.07,0-.13.08-.13.17s0,.17-.09.17a.09.09,0,0,0-.09.09.48.48,0,0,1-.34.34.09.09,0,0,0-.09.09c0,.08-.07.18-.33.46a.43.43,0,0,0-.11.17,4,4,0,0,1-.91.82.94.94,0,0,0-.3.27s-.06.06-.13.06-.13,0-.13.09-.23.34-.39.34-.39.2-.39.34-.1.09-.22.09-.22,0-.22.09-.06.09-.13.09a.13.13,0,0,0-.13.13.15.15,0,0,1-.17.13.29.29,0,0,0-.22.09.28.28,0,0,1-.21.09.24.24,0,0,0-.21.13.25.25,0,0,1-.23.13c-.1,0-.18,0-.18.09s-.14.09-.3.09-.3,0-.3.09-.19.09-.42.09-.44,0-.47.13-.26.13-1.18.13h-1.13v.51c0,.29,0,.51-.09.51s-.09.21-.09.47,0,.49-.13.52a.28.28,0,0,0-.13.25c0,.11,0,.21-.09.21s-.09.13-.09.3,0,.3-.09.3-.09.17-.09.39,0,.4-.13.44-.13.17-.13.42a.72.72,0,0,1-.09.42.64.64,0,0,0-.09.39c0,.22,0,.36-.13.39s-.13.16-.13.34,0,.29-.09.29-.09.14-.09.3,0,.32-.13.35-.13.16-.13.34,0,.29-.09.29-.09.1-.09.21,0,.21-.09.21-.09.12-.09.26-.05.28-.13.31a.28.28,0,0,0-.13.25c0,.11,0,.21-.09.21s-.09.13-.09.3,0,.3-.13.3-.13.08-.13.21,0,.21-.09.21-.09.1-.09.21,0,.21-.13.21-.13.08-.13.21,0,.21-.09.21-.09.09-.09.19a1.12,1.12,0,0,1-.17.45,3.4,3.4,0,0,0-.22.39c-.06.13-.28.58-.42.86,0,.09-.12.16-.15.16s-.07.1-.07.21,0,.21-.13.21-.13.08-.13.21,0,.21-.09.21-.09.07-.09.15-.2.45-.33.45-.1.1-.1.21,0,.21-.09.21-.09.1-.09.21,0,.21-.13.21-.13.08-.13.17,0,.17-.09.17-.09.06-.09.13,0,.13-.09.13-.09.07-.09.16a.52.52,0,0,1-.22.32.54.54,0,0,0-.22.35c0,.12-.05.19-.13.19a.13.13,0,0,0-.13.13c0,.07,0,.13-.09.13s-.09.08-.09.17,0,.17-.11.17-.33.37-.33.54-.23.32-.34.32-.09.07-.1.15-.2.45-.33.45a.1.1,0,0,0-.1.09.48.48,0,0,1-.34.34.09.09,0,0,0-.09.09,3.6,3.6,0,0,1-1,.94.09.09,0,0,0-.09.09.48.48,0,0,1-.34.34.09.09,0,0,0-.09.1,2.85,2.85,0,0,1-1.05.93.15.15,0,0,0-.16.13.12.12,0,0,1-.11.13.51.51,0,0,0-.27.21,1.16,1.16,0,0,1-.41.31c-.14.06-.25.14-.25.18s-.06.08-.13.08a.13.13,0,0,0-.13.13c0,.07-.08.13-.17.13s-.17,0-.17.09-.05.09-.12.09a.2.2,0,0,0-.17.13.22.22,0,0,1-.19.13.47.47,0,0,0-.29.16.88.88,0,0,1-.34.22c-.11,0-.2.1-.2.14s-.1.08-.22.08-.22,0-.22.09-.1.09-.22.09-.22,0-.22.13-.08.13-.22.13-.22,0-.22.09-.08.09-.18.09a.25.25,0,0,0-.23.13.29.29,0,0,1-.26.13c-.11,0-.21,0-.21.09s-.14.09-.3.09-.3,0-.3.13a.15.15,0,0,1-.17.13.29.29,0,0,0-.22.09.55.55,0,0,1-.35.09c-.16,0-.3,0-.3.09s-.09.09-.21.09a.29.29,0,0,0-.26.13c0,.07-.16.13-.31.13s-.26,0-.26.09-.13.09-.29.09-.31,0-.34.13-.16.13-.36.13-.31,0-.31.09-.17.09-.38.09-.4,0-.43.13-.16.13-.31.13a.46.46,0,0,0-.31.09.55.55,0,0,1-.35.09c-.16,0-.3,0-.3.09s-.13.09-.29.09a.61.61,0,0,0-.4.13.62.62,0,0,1-.41.13c-.46,0-.55.15-.55.89a1.68,1.68,0,0,1-.09.7c-.18.11-.1,1,.09,1s.17.1.17.16a.11.11,0,0,0,.09.12c.11,0,.34.21.34.32s.12.12.28.19a2.23,2.23,0,0,1,.56.41,1.11,1.11,0,0,0,.38.29.09.09,0,0,1,.09.09.48.48,0,0,0,.34.34.09.09,0,0,1,.09.09.48.48,0,0,0,.34.34.09.09,0,0,1,.09.09,1.09,1.09,0,0,0,.52.51.1.1,0,0,1,.09.11c0,.06.1.18.22.27a.52.52,0,0,1,.22.32c0,.09,0,.16.09.16s.09.06.09.13a.13.13,0,0,0,.13.13c.07,0,.13.08.13.17s0,.17.09.17.09.06.09.13,0,.13.09.13.09.1.09.21,0,.21.13.21.13.08.13.21,0,.21.09.21.09.13.09.3,0,.3.13.3.13.08.13.21a.35.35,0,0,0,.09.26.63.63,0,0,1,.09.39c0,.19,0,.34.09.34s.09.27.09.63,0,.64.13.68.13.24.13,1.08,0,1-.13,1.08-.13.2-.13.68a1.34,1.34,0,0,1-.08.63s-.09.23-.11.51,0,.51.08.51a.12.12,0,0,1,.11.13c0,.08.08.13.22.13s.22,0,.22.09.08.09.19.09.85.26.85.36.1.07.22.07.22,0,.22.09.1.09.22.09.22,0,.22.13.08.13.21.13a.36.36,0,0,1,.27.09.45.45,0,0,0,.31.09c.17,0,.26,0,.26.13s.08.13.22.13.22,0,.22.09.1.09.22.09.22,0,.22.09.1.09.21.09a.56.56,0,0,1,.34.13.51.51,0,0,0,.31.13c.1,0,.18,0,.18.09s.1.09.22.09.22,0,.22.13.08.13.22.13.22,0,.22.09.12.09.26.09.28.05.31.13a.29.29,0,0,0,.26.13c.11,0,.21,0,.21.09s.1.09.22.09.22,0,.22.09.08.09.18.09a.25.25,0,0,1,.23.13.24.24,0,0,0,.21.13c.09,0,.16,0,.16.09s.11.09.25.09a.53.53,0,0,1,.36.13.41.41,0,0,0,.27.13c.09,0,.16,0,.16.09s.1.09.22.09.22,0,.22.13.08.13.22.13.22,0,.22.09.1.09.22.09.22,0,.22.09.08.09.18.09a.25.25,0,0,1,.23.13.29.29,0,0,0,.26.13c.11,0,.21,0,.21.09s.08.09.18.09a.25.25,0,0,1,.23.13.29.29,0,0,0,.26.13c.11,0,.21,0,.21.09s.08.09.17.09.17,0,.17.09.08.09.18.09a.25.25,0,0,1,.23.13.29.29,0,0,0,.26.13c.11,0,.21,0,.21.09s.08.09.18.09a.25.25,0,0,1,.23.13.24.24,0,0,0,.21.13c.09,0,.16,0,.16.09s.06.09.13.09a.13.13,0,0,1,.13.13c0,.08.08.13.22.13s.22,0,.22.09.1.09.22.09.22,0,.22.09.06.09.13.09a.73.73,0,0,1,.34.21.73.73,0,0,0,.39.21c.1,0,.18.06.18.13s.08.13.22.13.22,0,.22.09.06.09.13.09a.21.21,0,0,1,.18.13.2.2,0,0,0,.17.13c.07,0,.12,0,.12.09s.08.09.18.09.43.19.43.34.1.09.22.09.22,0,.22.09.06.09.13.09a.13.13,0,0,1,.13.13c0,.07.08.13.18.13s.43.19.43.34.09.09.2.09a.46.46,0,0,1,.32.17.41.41,0,0,0,.27.17.52.52,0,0,1,.31.21.52.52,0,0,0,.32.21.23.23,0,0,1,.21.13c0,.07.09.13.13.13a.49.49,0,0,1,.33.34c0,.05.09.09.2.09a.46.46,0,0,1,.32.17.4.4,0,0,0,.24.17.12.12,0,0,1,.11.13.14.14,0,0,0,.15.13c.19,0,.46.2.46.33a.09.09,0,0,0,.09.1.78.78,0,0,1,.31.21.75.75,0,0,0,.32.21.4.4,0,0,1,.23.17.4.4,0,0,0,.24.17.1.1,0,0,1,.11.09.48.48,0,0,0,.34.34.09.09,0,0,1,.09.09c0,.13.38.48.59.55s.19.09.19.14a.09.09,0,0,0,.09.08.48.48,0,0,1,.34.34.09.09,0,0,0,.09.09c.1,0,.34.21.34.3a.62.62,0,0,0,.3.3c.09,0,.3.24.3.34a.09.09,0,0,0,.09.09c.1,0,.34.21.34.3s.24.3.34.3a.09.09,0,0,1,.09.09,1.13,1.13,0,0,0,.3.37,1,1,0,0,1,.3.42.14.14,0,0,0,.13.14.12.12,0,0,1,.13.11.39.39,0,0,0,.17.23.39.39,0,0,1,.17.23.1.1,0,0,0,.09.11.49.49,0,0,1,.34.33s.06.1.13.13a.21.21,0,0,1,.13.18c0,.07,0,.13.09.13s.09.06.09.13,0,.13.09.13a.48.48,0,0,1,.34.34.09.09,0,0,0,.09.09s.09.08.09.17.06.17.13.17a.12.12,0,0,1,.13.11c0,.06.1.18.22.27a.51.51,0,0,1,.22.3.51.51,0,0,0,.22.3.52.52,0,0,1,.22.32c0,.09,0,.16.09.16s.09.06.09.13,0,.13.09.13.09.1.09.21,0,.21.09.21.34.21.34.32a.94.94,0,0,0,.22.3.78.78,0,0,1,.22.41c0,.1.06.18.13.18a.13.13,0,0,1,.13.13c0,.07,0,.13.09.13s.09.08.09.17,0,.17.09.17.09.1.09.21,0,.21.13.21a.13.13,0,0,1,.13.13c0,.07,0,.13.09.13s.09.07.09.16a.24.24,0,0,0,.13.21.25.25,0,0,1,.13.22c0,.1,0,.17.09.17s.09.1.09.21,0,.21.09.21.09.1.09.21,0,.21.13.21.13.08.13.21,0,.21.09.21.09.1.09.21,0,.21.13.21.13.08.13.21,0,.21.09.21.09.07.09.16a.24.24,0,0,0,.13.21.25.25,0,0,1,.13.22c0,.1,0,.17.09.17s.09.1.09.21,0,.21.09.21.09.09.09.21a.28.28,0,0,0,.13.25c.08,0,.13.16.13.31s0,.26.09.26.09.09.09.21a.28.28,0,0,0,.13.25.29.29,0,0,1,.13.26.36.36,0,0,0,.09.26.34.34,0,0,1,.09.25.27.27,0,0,0,.13.25c.08,0,.13.16.13.3a.44.44,0,0,0,.09.31.35.35,0,0,1,.09.26c0,.11,0,.21.09.21s.09.13.09.3,0,.3.13.3.13.09.13.3,0,.3.09.3.09.14.09.31a.72.72,0,0,0,.13.43.69.69,0,0,1,.13.42c0,.16,0,.29.09.29s.09.12.09.26a.63.63,0,0,0,.13.39.6.6,0,0,1,.13.37.42.42,0,0,0,.09.3.63.63,0,0,1,.09.39c0,.19,0,.34.09.34s.09.19.09.43,0,.43.13.43.13.1.13.43,0,.43.09.43.09.23.09.51,0,.51.13.51.13.11.13.51,0,.51.09.51.09.19.09.42,0,.43.1.45.12.27.14.61.07.57.11.57.08.25.08.56,0,.56.09.56.09.28.09.68,0,.69.13.72.13.2.13.73a1.85,1.85,0,0,0,.09.74,2.28,2.28,0,0,1,.09.82c0,.57,0,.8.13.9s.13.33.13.93a2.43,2.43,0,0,0,.09.86,3.26,3.26,0,0,1,.09,1,3.26,3.26,0,0,0,.09,1,3.92,3.92,0,0,1,.09,1.15c0,.9,0,1.11.13,1.15s.13.28.13,1.42a5.62,5.62,0,0,0,.09,1.42,9.69,9.69,0,0,1,.09,1.93,11.43,11.43,0,0,0,.08,1.88c.15,0,.18.59.19,3.89,0,2,0,3.38.09,3.44A49.12,49.12,0,0,1,433.26,342.61ZM410,222.84h.35c.19,0,.35,0,.35-.09s.23-.09.51-.09.52,0,.56-.13.16-.13.31-.13.26,0,.26-.09.1-.09.22-.09.22,0,.22-.09a.1.1,0,0,1,.11-.09.83.83,0,0,0,.34-.21.8.8,0,0,1,.41-.21c.1,0,.18,0,.18-.09a.48.48,0,0,1,.34-.34.09.09,0,0,0,.09-.09s.1-.09.22-.09.22,0,.22-.09a7.61,7.61,0,0,1,1.38-1.37c.05,0,.09-.1.09-.21s0-.21.09-.21a.09.09,0,0,0,.09-.09.48.48,0,0,1,.34-.34c.05,0,.09-.1.09-.21s0-.21.09-.21a.1.1,0,0,0,.09-.11.81.81,0,0,1,.22-.34.78.78,0,0,0,.22-.41c0-.1.06-.18.13-.18s.13-.08.13-.21,0-.21.09-.21.09-.1.09-.21,0-.21.09-.21.09-.08.09-.17a.25.25,0,0,1,.13-.22.32.32,0,0,0,.13-.29.42.42,0,0,1,.09-.3.29.29,0,0,0,.09-.22.24.24,0,0,1,.13-.22c.08,0,.13-.16.13-.34s0-.29.09-.29.09-.13.09-.3,0-.3.08-.3.1-.18.12-.4.09-.42.14-.44.1-.2.1-.4a.73.73,0,0,1,.09-.43,1,1,0,0,0,.09-.51.92.92,0,0,1,.13-.59c.11-.11.13-.51.13-2.52s0-2.4-.13-2.44-.13-.18-.13-.52a1,1,0,0,0-.09-.52.45.45,0,0,1-.09-.31.63.63,0,0,0-.13-.39.54.54,0,0,1-.13-.34c0-.11,0-.21-.09-.21s-.09-.1-.09-.21,0-.21-.09-.21-.09-.1-.09-.21,0-.21-.09-.21-.11-.1-.14-.21-.09-.21-.13-.21-.08-.06-.08-.13a.65.65,0,0,0-.22-.33.65.65,0,0,1-.22-.34c0-.08,0-.14-.09-.14s-.09-.06-.09-.13,0-.13-.09-.13a.48.48,0,0,1-.34-.34c0-.05-.08-.09-.19-.09a.67.67,0,0,1-.39-.21.66.66,0,0,0-.34-.21c-.07,0-.13,0-.13-.09s-.14-.09-.3-.09-.3,0-.3-.09-.35-.09-.87-.09-.87,0-.87.09-.15.09-.33.09a.52.52,0,0,0-.49.21.52.52,0,0,1-.29.21.47.47,0,0,0-.37.34.09.09,0,0,1-.09.09,3.81,3.81,0,0,0-1,.94s-.06.09-.12.09-.17.31-.28,2c0,.53,0,.74,0,.7a.51.51,0,0,0,.09-.35.68.68,0,0,1,.13-.42.49.49,0,0,0,.13-.3.29.29,0,0,1,.09-.23.36.36,0,0,0,.09-.26.29.29,0,0,1,.13-.26.19.19,0,0,0,.13-.15c0-.15.21-.56.28-.56s.07-.06.07-.13a.21.21,0,0,1,.13-.18c.07,0,.13-.09.13-.13a.49.49,0,0,1,.34-.33.1.1,0,0,0,.09-.1c0-.13.27-.32.45-.33a.23.23,0,0,0,.19-.13c0-.08.16-.13.36-.13s.31,0,.31-.09.15-.09.34-.09a.65.65,0,0,1,.4.09.46.46,0,0,0,.31.09c.15,0,.28.05.31.13a.25.25,0,0,0,.22.13c.18,0,.42.19.42.34a.09.09,0,0,0,.09.09.48.48,0,0,1,.34.34.1.1,0,0,0,.1.09,4.09,4.09,0,0,1,.94.9,1.58,1.58,0,0,0,.22.33,1,1,0,0,1,.22.51.63.63,0,0,0,.1.31,2.48,2.48,0,0,0,0,.33.4.4,0,0,0-.11.25c0,.1,0,.18-.09.18s-.09.06-.09.13a.13.13,0,0,1-.13.13c-.07,0-.13,0-.13.09s-.21.09-.48.09-.48,0-.48-.09-.06-.09-.13-.09a.13.13,0,0,1-.13-.13c0-.07,0-.13-.09-.13s-.08-.09-.09-.21l.06,0a.24.24,0,0,1,0-.07h0v0l-.06,0a.13.13,0,0,0,0-.06l-.14-.19h0s0,0,0,0h0s-.06,0-.18,0h-.07c.27-.07-.15-.64-.81-1.08s-1.07.2-1.57,1.56c-.62,1.7-.51,2.69.62,5.35.29.68.62,1.57.74,2,.3,1,.38,1.2.53,1.2s.13.12.13.59a1.47,1.47,0,0,0,.09.65,3.85,3.85,0,0,1,0,1.63,1.27,1.27,0,0,0-.09.59c0,.38,0,.57-.13.65a.59.59,0,0,0-.13.4c0,.16,0,.29-.09.29s-.09.13-.09.3,0,.3-.13.3-.13.08-.13.21,0,.21-.07.21-.12.13-.19.3-.17.3-.23.3-.11.09-.11.21,0,.21-.09.21-.09.06-.09.13a.13.13,0,0,1-.13.13c-.07,0-.13.08-.13.18s-.19.42-.34.42a.09.09,0,0,0-.09.09s-.09.09-.21.09-.23,0-.25.11-.08.09-.22,0a.81.81,0,0,0-.32-.11.44.44,0,0,1-.39-.42c0-.1-.06-.18-.13-.18s-.13-.1-.13-.34,0-.36.13-.39a.28.28,0,0,0,.13-.25c0-.11,0-.21.09-.21s.09-.1.09-.21,0-.21.09-.21.09-.08.09-.17a.25.25,0,0,1,.13-.22.28.28,0,0,0,.13-.25c0-.11,0-.21.09-.21s.09-.1.09-.22a.29.29,0,0,1,.13-.27c.09,0,.13-.17.13-.38s0-.33.09-.33a5.37,5.37,0,0,0,.09-1.49,6.53,6.53,0,0,0-.09-1.55,1,1,0,0,1-.09-.52c0-.36,0-.47-.13-.47s-.13-.09-.13-.3,0-.3-.09-.3-.09-.13-.09-.29,0-.31-.13-.34a.25.25,0,0,1-.13-.22c0-.1,0-.17-.09-.17s-.09-.11-.09-.25a.44.44,0,0,0-.09-.3.35.35,0,0,1-.09-.26c0-.13,0-.21-.13-.21s-.13-.08-.13-.21a.35.35,0,0,0-.09-.26.36.36,0,0,1-.09-.27.55.55,0,0,0-.13-.34.78.78,0,0,1-.13-.46c0-.18,0-.34-.08-.34a22.41,22.41,0,0,0-.11,2.84,11.64,11.64,0,0,1-.14,2.87c-.08,0-.11.44-.11,1.7a6.59,6.59,0,0,1-.09,1.66,3.09,3.09,0,0,0-.09,1.11,4,4,0,0,1-.09,1.16,3,3,0,0,0-.09,1c0,.68,0,1-.13,1.09a1.46,1.46,0,0,0-.13.74Zm-65.46.13c0-.07,0-.13-.09-.13s-.09-.3-.09-.72,0-.73-.11-.76-.12-.32-.14-1a4,4,0,0,0-.11-1,8.51,8.51,0,0,1-.08-1.56,5.29,5.29,0,0,0-.09-1.48c-.06,0-.09-2.35-.09-6.89,0-6.07,0-6.89-.13-6.89a.13.13,0,0,1-.13-.13c0-.07,0-.13-.09-.13a.09.09,0,0,1-.09-.09c0-.11-.09-.22-.63-.77a2.08,2.08,0,0,1-.41-.51s-.1-.09-.22-.09-.22,0-.22-.09-.1-.09-.22-.09-.22,0-.22-.13-.08-.13-.22-.13-.22,0-.22-.09a5.37,5.37,0,0,0-1.91,0s-.09.09-.21.09a.29.29,0,0,0-.26.13.25.25,0,0,1-.23.13c-.1,0-.18,0-.18.09s-.06.09-.13.09a2.34,2.34,0,0,0-.65.51,2.87,2.87,0,0,1-.61.51c-.05,0-.09.1-.09.21s0,.21-.09.21-.09.06-.09.13,0,.13-.09.13-.09.08-.09.17-.06.17-.13.17-.13.08-.13.21,0,.21-.09.21-.09.1-.09.21,0,.21-.13.21-.13.09-.13.3,0,.3-.09.3-.09.14-.09.3,0,.32-.13.35-.13.18-.13.51,0,.46-.09.46-.09.33-.09.81a2.46,2.46,0,0,1-.09.86,5.62,5.62,0,0,0,0,2,2.85,2.85,0,0,1,.09.95c0,.54,0,.89.09.89s.09.23.09.5,0,.52.13.55.13.17.13.44,0,.39.09.39.09.19.09.43,0,.43.13.43.13.09.13.3,0,.3.09.3.09.08.09.18a.5.5,0,0,0,.13.31.54.54,0,0,1,.13.34c0,.11,0,.21.09.21s.09.1.09.21,0,.21.09.21.09.13.09.3,0,.3.13.3.13.08.13.18a.78.78,0,0,0,.22.41.81.81,0,0,1,.22.34.1.1,0,0,0,.09.11s.09.1.09.21.05.21.11.21.17.13.23.3.15.3.19.3.07.06.07.13a.13.13,0,0,0,.13.13c.07,0,.13.08.13.18s.18.42.3.42.3.24.3.34a.09.09,0,0,0,.09.09c.1,0,.34.21.34.3s.24.3.34.3a.09.09,0,0,1,.09.09.48.48,0,0,0,.34.34.09.09,0,0,1,.09.09.1.1,0,0,0,.11.09.83.83,0,0,1,.34.21.81.81,0,0,0,.36.21.52.52,0,0,1,.28.21.55.55,0,0,0,.36.21c.11,0,.2,0,.2.09s.08.09.18.09a.25.25,0,0,1,.23.13c0,.08.16.13.34.13s.29,0,.29.09.22.09.48.09.49,0,.53.13a.29.29,0,0,0,.26.13C344.5,223.1,344.58,223,344.58,223Zm40.36,38a.49.49,0,0,1-.34-.33c0-.1-.18-.17-.33-.12s-.11.25-.11.72,0,.69-.13.73-.13.18-.13.55,0,.5-.09.5-.09.06-.09.13,0,.13.09.13a.46.46,0,0,0,.34-.37.8.8,0,0,1,.22-.35.79.79,0,0,0,.22-.35c0-.07,0-.12.09-.12s.09-.08.09-.17a.25.25,0,0,1,.13-.22C385.06,261.68,385.09,261,384.95,261Zm-.3-3.11c.29.19.35.1.16-.22s-.22-.31-.32-.21S384.44,257.77,384.65,257.9Zm-12.77-6.73a5.38,5.38,0,0,1,1,.4,10.45,10.45,0,0,0,5.64,1.14c1.51-.14,2.44-.39,2.08-.54h.15c.08,0,.17,0,.2,0s0,0,0,0h0l0,0h0l0,0s0,0,0,0h0s.1-.09.14-.1l.08,0c.15,0,.2,0,.2-.11a.15.15,0,0,1,.17-.13.29.29,0,0,0,.22-.09.28.28,0,0,1,.21-.09.24.24,0,0,0,.21-.13.25.25,0,0,1,.23-.13c.1,0,.18,0,.18-.09s.1-.09.22-.09.22,0,.22-.09.13-.09.29-.09.31,0,.34-.13.16-.13.31-.13.26,0,.26-.09.16-.09.35-.09.35,0,.35-.13.09-.13.3-.13.3,0,.3-.09.12-.09.27-.09a.66.66,0,0,0,.4-.13.63.63,0,0,1,.38-.13c.14,0,.25,0,.25-.09s.14-.09.3-.09.3,0,.3-.09.13-.09.29-.09.31,0,.34-.13.16-.13.31-.13a.46.46,0,0,0,.31-.09.55.55,0,0,1,.35-.09c.21,0,.3,0,.3-.13s.09-.13.3-.13.3,0,.3-.09.08-.09.18-.09a.51.51,0,0,0,.31-.13.56.56,0,0,1,.34-.13c.12,0,.21,0,.21-.09s.1-.09.22-.09.22,0,.22-.09.09-.09.21-.09a.29.29,0,0,0,.26-.13.25.25,0,0,1,.23-.13c.1,0,.18,0,.18-.09s.1-.09.22-.09.22,0,.22-.07.18-.14.39-.23.39-.19.39-.23.1-.07.22-.07.22,0,.22-.13.08-.13.17-.13a1.07,1.07,0,0,0,.49-.3,1.07,1.07,0,0,1,.48-.3c.09,0,.17,0,.17-.09s.23-.34.39-.34.39-.2.39-.34.06-.09.13-.09.13,0,.13-.09.1-.09.22-.09.22,0,.22-.09a3.6,3.6,0,0,1,1-.94.09.09,0,0,0,.09-.08,8.46,8.46,0,0,1,1.39-1.38.09.09,0,0,0,.08-.09,1.17,1.17,0,0,1,.3-.38,1,1,0,0,0,.3-.42c0-.07,0-.13.09-.13s.09-.06.09-.13,0-.13.09-.13a.46.46,0,0,0,.34-.38.22.22,0,0,1,.13-.19.19.19,0,0,0,.13-.15.4.4,0,0,1,.17-.22.41.41,0,0,0,.17-.28.23.23,0,0,1,.13-.2.24.24,0,0,0,.13-.21c0-.09,0-.16.09-.16s.09-.06.09-.13a.13.13,0,0,1,.13-.13c.07,0,.13-.08.13-.18s.19-.42.34-.42.09-.1.09-.21,0-.21.09-.21.09-.1.09-.21,0-.21.08-.21.1-.1.13-.21.09-.21.14-.21.09-.08.09-.17,0-.17.09-.17.09-.06.09-.13a.13.13,0,0,1,.13-.13c.08,0,.13-.08.13-.21s0-.21.09-.21.09-.1.09-.21,0-.21.13-.21.13-.08.13-.21,0-.21.09-.21.09-.1.09-.21,0-.21.09-.21.09-.08.09-.17.06-.17.13-.17.13-.09.13-.3,0-.3.09-.3.09-.09.09-.2a.28.28,0,0,1,.13-.25.25.25,0,0,0,.13-.22c0-.1,0-.17.09-.17s.09-.1.09-.21,0-.21.09-.21.09-.13.09-.29,0-.31.13-.34.13-.16.13-.3a.44.44,0,0,1,.09-.31.35.35,0,0,0,.09-.26c0-.13,0-.21.13-.21s.13-.09.13-.3,0-.3.09-.3.09-.17.09-.39,0-.4.13-.44.13-.18.13-.51a1,1,0,0,1,.09-.51.75.75,0,0,0,.09-.43c0-.21,0-.38.09-.38s.09-.11.09-.25a.52.52,0,0,1,.13-.35c.09-.07.13-.27.13-.65a1.27,1.27,0,0,1,.09-.59,1.27,1.27,0,0,0,.09-.59c0-.38,0-.57.13-.65s.13-.29.13-.82,0-.72.09-.72a2.26,2.26,0,0,0,.09-.93c0-.72,0-1,.13-1s.13-.33.13-1.21a3.07,3.07,0,0,1,.09-1.1,3.47,3.47,0,0,0,.09-1.18,5.82,5.82,0,0,1,.08-1.26,10.79,10.79,0,0,0,.11-1.73,6.15,6.15,0,0,1,.14-1.75,62.21,62.21,0,0,0,0-8.06.25.25,0,0,1-.13-.22c0-.1,0-.17-.09-.17s-.09-.06-.09-.13-.08-.13-.22-.13-.22,0-.22-.09-.08-.09-.17-.09-.17,0-.17-.09-.06-.09-.13-.09a.13.13,0,0,1-.13-.13.14.14,0,0,0-.15-.13c-.19,0-.46-.2-.46-.33a.1.1,0,0,0-.09-.1c-.15,0-.34-.23-.34-.42s-.06-.18-.13-.18a.13.13,0,0,1-.13-.13c0-.07,0-.13-.09-.13s-.09-.13-.09-.3,0-.3-.13-.3-.13-.09-.13-.29a.53.53,0,0,0-.09-.35.75.75,0,0,1-.09-.43c0-.21,0-.38-.09-.38s-.09-.18-.09-.39a.84.84,0,0,0-.13-.52,1,1,0,0,1-.13-.64c0-.28,0-.51-.09-.51s-.09-.23-.09-.51,0-.52-.1-.54-.12-.25-.14-.52a1.28,1.28,0,0,0-.12-.54.79.79,0,0,1-.08-.43c0-.21,0-.38-.09-.38s-.09-.17-.09-.39,0-.4-.13-.44-.13-.17-.13-.42,0-.38-.09-.38-.09-.15-.09-.34,0-.34-.13-.34-.13-.1-.13-.39,0-.39-.09-.39-.09-.13-.09-.29a.59.59,0,0,0-.13-.4.52.52,0,0,1-.13-.35c0-.14,0-.25-.09-.25s-.09-.13-.09-.3,0-.3-.09-.3-.09-.13-.09-.29,0-.31-.13-.34-.13-.16-.13-.31,0-.26-.09-.26-.09-.1-.09-.22a.56.56,0,0,0-.13-.35.54.54,0,0,1-.13-.34c0-.11,0-.21-.09-.21s-.09-.13-.09-.29,0-.31-.13-.34a.25.25,0,0,1-.13-.22c0-.1,0-.17-.09-.17s-.09-.13-.09-.3,0-.3-.09-.3-.09-.09-.09-.21a.28.28,0,0,0-.13-.25c-.08,0-.13-.16-.13-.31s0-.26-.09-.26-.09-.1-.09-.21,0-.21-.13-.21-.13-.08-.13-.21,0-.21-.09-.21-.09-.13-.09-.29,0-.31-.13-.34a.25.25,0,0,1-.13-.22c0-.1,0-.17-.09-.17s-.09-.1-.09-.21,0-.21-.09-.21-.09-.09-.09-.21a.28.28,0,0,0-.13-.25c-.08,0-.13-.16-.13-.31s0-.26-.09-.26-.09-.1-.09-.21,0-.21-.13-.21-.13-.08-.13-.21,0-.21-.09-.21-.09-.07-.09-.16a.24.24,0,0,0-.13-.21.21.21,0,0,1-.13-.18.74.74,0,0,0-.08-.28c-.07-.13-.15-.33-.31-.7a3.22,3.22,0,0,0-.22-.39,1.11,1.11,0,0,1-.17-.41c0-.08,0-.15-.09-.15s-.11-.1-.14-.21-.09-.21-.13-.21-.08-.07-.08-.17a.28.28,0,0,0-.09-.22.28.28,0,0,1-.09-.22c0-.18-.63-.25-.74-.08s-.48.11-.48,0-.12-.09-.26-.09-.26,0-.26-.13a.12.12,0,0,0-.11-.13c-.16,0-.49-.4-.49-.6a.15.15,0,0,0-.13-.17c-.07,0-.13,0-.13.07s-.52.36-.86.36-.36,0-.36-.13,0-.13-.09-.13a.48.48,0,0,1-.34-.34.09.09,0,0,0-.09-.09s-.09-.13-.09-.3,0-.3-.09-.3a.48.48,0,0,1-.34-.34.09.09,0,0,0-.09-.09.48.48,0,0,1-.34-.34.09.09,0,0,0-.09-.09c-.1,0-.34-.21-.34-.3a.62.62,0,0,0-.3-.3c-.09,0-.3-.24-.3-.34s-.06-.09-.13-.09-.13,0-.13-.09-.08-.09-.17-.09-.17-.06-.17-.13a.13.13,0,0,0-.13-.13c-.07,0-.13,0-.13-.09s-.07-.09-.16-.09a.52.52,0,0,1-.32-.21.53.53,0,0,0-.32-.21c-.17,0-.41-.19-.41-.34s-.1-.09-.22-.09-.22,0-.22-.09-.1-.09-.22-.09-.22,0-.22-.13-.08-.13-.22-.13-.22,0-.22-.09-.12-.09-.26-.09-.28-.05-.31-.13-.16-.13-.3-.13a.43.43,0,0,1-.3-.09.65.65,0,0,0-.4-.09c-.19,0-.34,0-.34-.07a1.81,1.81,0,0,0-.7-.12,2.42,2.42,0,0,1-.8-.14,1.15,1.15,0,0,0-.91,0,2.11,2.11,0,0,1-.76.14,1.57,1.57,0,0,0-.66.12s-.18.07-.39.07-.39,0-.39.09-.1.09-.22.09a.58.58,0,0,0-.35.13.49.49,0,0,1-.3.13c-.09,0-.17,0-.17.09s-.09.09-.21.09a.29.29,0,0,0-.26.13.25.25,0,0,1-.23.13c-.1,0-.18,0-.18.09a.09.09,0,0,1-.09.09c-.09,0-.18.07-.47.32a.42.42,0,0,1-.21.11.09.09,0,0,0-.09.09s-.1.09-.22.09-.22,0-.22.09-.21.34-.3.34a.43.43,0,0,0-.18.11c-.29.25-.39.32-.47.32a.09.09,0,0,0-.09.09c0,.1-.21.34-.3.34s-.3.24-.3.34,0,.09-.07.09a4.27,4.27,0,0,0-1,.94.09.09,0,0,1-.09.09c-.1,0-.34.21-.34.3s-.24.3-.34.3a.09.09,0,0,0-.09.09.48.48,0,0,1-.34.34.09.09,0,0,0-.09.09.48.48,0,0,1-.34.34c-.05,0-.09.08-.09.17s0,.17-.09.17a.09.09,0,0,0-.09.09,2.39,2.39,0,0,1-.78.76s-.09.08-.09.18a.93.93,0,0,1-.3.47,1.57,1.57,0,0,0-.3.33,1.1,1.1,0,0,1-.22.28.94.94,0,0,0-.22.3c0,.1-.23.32-.34.32s-.09.06-.09.13,0,.13-.09.13-.09.06-.09.13a.21.21,0,0,1-.13.18.19.19,0,0,0-.13.15.4.4,0,0,1-.17.22.39.39,0,0,0-.17.23.12.12,0,0,1-.13.11.14.14,0,0,0-.13.15c0,.18-.2.45-.33.45a.11.11,0,0,0-.1.11.39.39,0,0,1-.17.23.39.39,0,0,0-.17.23,1.94,1.94,0,0,1-.43.54,1.87,1.87,0,0,0-.43.55c0,.06-.1.19-.22.28s-.22.19-.22.23-.23.32-.34.32-.09.07-.1.15-.2.45-.33.45a.1.1,0,0,0-.1.09.48.48,0,0,1-.34.34.1.1,0,0,0-.09.11.39.39,0,0,1-.17.23.39.39,0,0,0-.17.23,1.94,1.94,0,0,1-.43.54,2.25,2.25,0,0,0-.43.51.09.09,0,0,1-.09.08c-.1,0-.34.21-.34.3a.62.62,0,0,1-.3.3c-.09,0-.3.24-.3.34a.09.09,0,0,1-.09.09.48.48,0,0,0-.34.34.09.09,0,0,1-.09.09,1.4,1.4,0,0,0-.41.3,1.24,1.24,0,0,1-.43.3.1.1,0,0,0-.11.09s-.06.09-.13.09-.13,0-.13.09-.21.34-.3.34a.43.43,0,0,0-.18.11c-.29.25-.39.32-.47.32a.09.09,0,0,0-.09.09s-.1.09-.22.09-.22,0-.22.13.56.19.65,0a8.67,8.67,0,0,1,2.43,0,.9.9,0,0,0,.48.09c.24,0,.43,0,.43.09s.15.09.34.09a.81.81,0,0,1,.47.13.51.51,0,0,0,.31.13c.1,0,.18,0,.18.09s.09.09.21.09a.46.46,0,0,1,.31.13.36.36,0,0,0,.23.13c.07,0,.12,0,.12.09s.08.09.18.09a.25.25,0,0,1,.23.13.24.24,0,0,0,.21.13c.09,0,.16,0,.16.09s.06.09.12.09a.18.18,0,0,1,.16.11c0,.06,0-.07,0-.28v-.39l.37,0a.67.67,0,0,1,.48.09,1.28,1.28,0,0,1,.32.61.2.2,0,0,0,.13.17c.09,0,.13,0,.13-.12s.06-.17.39-.17H370v.5c0,.37,0,.52.13.55s.13.2.13.7,0,.66-.13.7-.13.17-.13.47,0,.42-.09.42-.09.11-.09.24a.56.56,0,0,1-.57.53.58.58,0,0,0-.35.13c-.11.11-.46.13-2,.13a8.65,8.65,0,0,0-1.9.09s-.22.09-.5.09a1.37,1.37,0,0,0-.67.13.9.9,0,0,1-.46.13c-.16,0-.29,0-.29.09s-.1.09-.21.09a.36.36,0,0,0-.27.09.45.45,0,0,1-.31.09c-.17,0-.26,0-.26.13s-.08.13-.17.13-.17,0-.17.09-.09.09-.21.09a.29.29,0,0,0-.26.13.25.25,0,0,1-.23.13c-.1,0-.18,0-.18.09s-.09.09-.21.09a.29.29,0,0,0-.26.13.25.25,0,0,1-.23.13c-.1,0-.18,0-.18.09s-.1.09-.22.09-.22,0-.22.09-.1.09-.22.09-.22,0-.22.13-.08.13-.22.13-.22,0-.22.09-.14.09-.3.09-.3,0-.3.13-.08.13-.22.13-.22,0-.22.09-.13.09-.29.09-.31,0-.34.13-.16.13-.35.13a.55.55,0,0,0-.36.09,3.68,3.68,0,0,1-1.52,0s-.1-.1-.22-.13l-.09,0a3.14,3.14,0,0,0-.38-1c0-.05,0-.1,0-.16,0-.57,0-.8.13-.9a.72.72,0,0,0,.13-.43c0-.17,0-.31.09-.31s.09-.13.09-.3,0-.3.13-.3.13-.09.13-.29a.53.53,0,0,1,.09-.35.29.29,0,0,0,.09-.22.24.24,0,0,1,.13-.22.24.24,0,0,0,.13-.21c0-.09,0-.16.09-.16s.09-.06.09-.13,0-.13.09-.13.09-.07.09-.16a.52.52,0,0,1,.22-.32A.54.54,0,0,0,356,194c0-.11,0-.19.09-.19s.34-.21.34-.3.24-.3.34-.3a.09.09,0,0,0,.09-.09.48.48,0,0,1,.34-.34.09.09,0,0,0,.09-.09c0-.1.21-.34.3-.34a1.11,1.11,0,0,0,.29-.21l.23-.21h-.24c-.13,0-.24,0-.24.09s-.19.09-.43.09c-.86,0-1.07-1.08-.34-1.72a.5.5,0,0,0,.16-.32c0-.1,0-.18.09-.18a.48.48,0,0,0,.34-.34.09.09,0,0,1,.09-.09.46.46,0,0,0,.34-.39,2,2,0,0,1,.78-.81s.09-.1.09-.21,0-.21.09-.21.09-.06.09-.13a.13.13,0,0,1,.13-.13c.07,0,.13-.08.13-.17s0-.17.09-.17a.09.09,0,0,0,.09-.09.48.48,0,0,1,.34-.34c.05,0,.09-.1.09-.21s0-.21.08-.21.1-.1.13-.21.09-.21.14-.21.09-.06.09-.13,0-.13.09-.13.09-.08.09-.17.06-.17.13-.17.13-.08.13-.21,0-.21.09-.21.09-.1.09-.21,0-.21.08-.21.1-.1.13-.21.09-.21.14-.21.09-.05.09-.12.26-.66.35-.66.08-.1.08-.21,0-.21.09-.21.09-.1.09-.21,0-.21.13-.21.13-.09.13-.3,0-.3.09-.3.09-.06.09-.13a.13.13,0,0,0-.13-.13c-.08,0-.13.08-.13.2a.45.45,0,0,1-.17.32.41.41,0,0,0-.17.28.23.23,0,0,1-.13.2.22.22,0,0,0-.13.19c0,.18-.2.44-.33.44s-.1.08-.1.18-.19.42-.34.42-.09.06-.09.13c0,.24-.34.73-.51.73s-.09.08-.09.18-.19.42-.34.42-.09.1-.09.21,0,.21-.09.21-.09.06-.09.13a.13.13,0,0,1-.13.13c-.07,0-.13.08-.13.17s0,.17-.09.17a.09.09,0,0,0-.09.09.48.48,0,0,1-.34.34c-.05,0-.09.1-.09.21s0,.21-.09.21-.09.06-.09.13,0,.13-.09.13-.34.23-.34.42,0,.18-.09.18a.48.48,0,0,0-.34.34.09.09,0,0,1-.09.09s-.09.05-.09.12a2,2,0,0,1-.43.57,2.16,2.16,0,0,0-.43.55c0,.06-.1.17-.22.26s-.22.19-.22.23-.23.32-.34.32-.09.08-.09.18-.19.42-.34.42a.1.1,0,0,0-.09.11.39.39,0,0,1-.17.23.39.39,0,0,0-.17.23.74.74,0,0,1-.22.32.77.77,0,0,0-.22.3.09.09,0,0,1-.09.09.48.48,0,0,0-.34.34.09.09,0,0,1-.09.09c-.15,0-.34.23-.34.41a.39.39,0,0,1-.22.28c-.12.06-.22.15-.22.19a.5.5,0,0,1-.34.32.09.09,0,0,0-.09.09.48.48,0,0,1-.34.34.1.1,0,0,0-.09.11.39.39,0,0,1-.17.23.39.39,0,0,0-.17.23.74.74,0,0,1-.22.32.77.77,0,0,0-.22.3.09.09,0,0,1-.1.09c-.13,0-.33.26-.33.45s0,.15-.1.15a.41.41,0,0,0-.22.12.4.4,0,0,0-.12.21.09.09,0,0,1-.09.09.1.1,0,0,0-.09.11,1.46,1.46,0,0,1-.6.66.12.12,0,0,0-.1.13c0,.07,0,.13-.09.13s-.09.07-.09.15a.61.61,0,0,1-.47.45c-.13,0-.42.25-.75.66s-1,1.16-1.45,1.63-.49.93-.73,3.08c-.17,1.59.1,12.74.35,14a1.65,1.65,0,0,1,0,.54,38.35,38.35,0,0,0,.58,5.12,44.47,44.47,0,0,0,1,4.49c.12.44.94,2.84,1.14,3.31l.26.62a44.61,44.61,0,0,0,4.17,8c.39.58,1.34,1.87,1.47,2l.43.51a21.8,21.8,0,0,0,6.78,5.32,25.83,25.83,0,0,0,2.86,1.25C367.07,249.65,371.63,251.17,371.88,251.17Zm-3.94,8.1c0,.16.15.16.32,0s.14-.18-.13-.14C368,259.13,367.94,259.2,367.94,259.27Zm5.82,10.91c-.18,0-.27,0-.27-.13s-.08-.13-.22-.13-.22,0-.22-.09-.1-.09-.22-.09-.22,0-.22-.09-.1-.09-.22-.09-.22,0-.22-.13-.08-.13-.22-.13-.22,0-.22-.09-.1-.09-.22-.09-.22,0-.22-.13-.08-.13-.22-.13-.22,0-.22-.09-.08-.09-.18-.09a.25.25,0,0,1-.23-.13.24.24,0,0,0-.21-.13c-.09,0-.16,0-.16-.09s-.06-.09-.13-.09-.13,0-.13-.09-.08-.09-.18-.09a.25.25,0,0,1-.23-.13.24.24,0,0,0-.21-.13c-.09,0-.16,0-.16-.09s-.06-.09-.13-.09-.13,0-.13-.1-.27-.32-.46-.33a.15.15,0,0,1-.15-.13c0-.07,0-.13-.09-.13a1.09,1.09,0,0,1-.52-.51.09.09,0,0,0-.09-.09.49.49,0,0,1-.34-.33s-.06-.1-.13-.13a.21.21,0,0,1-.13-.18c0-.07,0-.13-.09-.13s-.09-.09-.09-.21a.28.28,0,0,0-.13-.25c-.08,0-.13-.16-.13-.35s0-.3-.09-.3a2.47,2.47,0,0,1-.09-1,3.29,3.29,0,0,1,.09-1,.51.51,0,0,0,.09-.34.68.68,0,0,1,.13-.42.5.5,0,0,0,.13-.31c0-.1,0-.18.09-.18s.09-.1.09-.21,0-.21.13-.21.13-.08.13-.18.19-.42.34-.42.09-.09.09-.21a.29.29,0,0,1,.11-.25c.06,0,.07,0,0,0a4.48,4.48,0,0,0-1,1s-.06.08-.13.08-.13.08-.13.18-.19.42-.34.42-.09.1-.09.21,0,.21-.09.21-.09.1-.09.21,0,.21-.09.21-.09.07-.09.16a.4.4,0,0,1-.13.27.65.65,0,0,0-.13.44c0,.18,0,.33-.09.33a13,13,0,0,0,0,3s.09.21.09.46,0,.48.13.51.13.16.13.35a.53.53,0,0,0,.09.35.52.52,0,0,1,.09.34.52.52,0,0,0,.09.34.36.36,0,0,1,.09.27.55.55,0,0,0,.13.34.54.54,0,0,1,.13.34c0,.11,0,.21.09.21s.09.13.09.3,0,.3.13.3.13.08.13.21a.35.35,0,0,0,.09.26.42.42,0,0,1,.09.3.32.32,0,0,0,.13.29.25.25,0,0,1,.13.22c0,.1,0,.17.09.17s.09.1.09.21,0,.21.09.21.09.08.09.18a.5.5,0,0,0,.13.31.54.54,0,0,1,.13.34c0,.11,0,.21.09.21s.09.1.09.21,0,.21.13.21a.15.15,0,0,1,.13.17.28.28,0,0,0,.09.22.27.27,0,0,1,.09.21.23.23,0,0,0,.13.21.25.25,0,0,1,.13.22c0,.1,0,.17.09.17s.09.1.09.21,0,.21.09.21.09.1.09.21,0,.21.13.21.13.08.13.21,0,.21.09.21.09.1.09.21,0,.21.08.21.35.48.35.66,0,.12.09.12.09.1.09.21,0,.21.13.21a.13.13,0,0,1,.13.13c0,.07,0,.13.09.13s.09.08.09.17.06.17.13.17.13-.08.13-.17,0-.17.09-.17.09-.1.09-.21,0-.21.13-.21.13-.09.13-.3,0-.3.09-.3.09-.1.09-.21,0-.21.13-.21.13-.08.13-.21,0-.21.09-.21.09-.09.09-.21a.35.35,0,0,1,.09-.26.36.36,0,0,0,.09-.26.29.29,0,0,1,.13-.26.28.28,0,0,0,.13-.25c0-.11,0-.21.09-.21s.09-.1.09-.21,0-.21.13-.21.13-.08.13-.21,0-.21.09-.21.09-.1.09-.21,0-.21.13-.21.13-.09.13-.3,0-.3.09-.3.09-.1.09-.21,0-.21.09-.21.09-.08.09-.17a.25.25,0,0,1,.13-.22.28.28,0,0,0,.13-.25c0-.11,0-.21.09-.21s.09-.08.09-.17.06-.17.13-.17.13-.09.13-.29a.53.53,0,0,1,.09-.35C374.48,270.64,374.17,270.18,373.76,270.18Zm6-2.91c.12,0,.37-.2.37-.3s.24-.3.34-.3a.09.09,0,0,0,.09-.09c0-.1.21-.34.3-.34s.3-.24.3-.34a.1.1,0,0,1,.1-.09.46.46,0,0,0,.24-.16,2.08,2.08,0,0,1,.42-.32c.15-.09.28-.21.28-.27a.11.11,0,0,1,.1-.11.46.46,0,0,0,.24-.16.89.89,0,0,1,.27-.21c.07,0-.06-.05-.3-.06-.73,0-.92-.31-.92-1.46a3.52,3.52,0,0,1,.08-1,4.32,4.32,0,0,0,.1-1.09c0-.75,0-1,.13-1s.36-.4.45-1.33c.06-.52.16-1.31.23-1.75s.21-1.34.3-2a11.6,11.6,0,0,1,.22-1.26c.07-.12-.2-.21-.33-.11a8.09,8.09,0,0,1-.93.39,19.21,19.21,0,0,1-2.21.68,16.76,16.76,0,0,1-4.31,0,15.55,15.55,0,0,1-3.87-1.6c-.9-.5-.92-.48-.56.82.14.51.28,1,.3,1.14l.27,1.24c.12.56.28,1.41.36,1.88.16,1,.37,1.5.65,1.5.05,0,.09.06.09.14s0,.12-.13,0-.13,0-.13.41,0,.53.11.55.12.29.14.8a2.92,2.92,0,0,0,.11.84c.23.24,0,.9-.39,1.27-.22.2-1.08.21-1.15,0a.2.2,0,0,0-.16-.13c-.06,0-.16-.11-.22-.24l-.21-.41a6.82,6.82,0,0,1-.29-1.77c0-.45-.07-.56-.17-.53s-.12.08-.12.13a1.23,1.23,0,0,1-.3.37,1,1,0,0,0-.3.42c0,.07,0,.13-.08.13s-.1.1-.13.21-.09.21-.14.21-.09.1-.09.21,0,.21-.09.21-.09.13-.09.29a.52.52,0,0,1-.1.35c-.13.08,0,1.24.19,1.24s.08.1.08.21,0,.21.09.21a.48.48,0,0,1,.34.34c0,.05.06.09.13.09s.13,0,.13.09.08.09.17.09.17.06.17.13a.13.13,0,0,0,.13.13c.07,0,.13,0,.13.09s.07.09.16.09a.52.52,0,0,1,.32.21.55.55,0,0,0,.36.21c.11,0,.2,0,.2.09s.08.09.18.09a.25.25,0,0,1,.23.13.21.21,0,0,0,.17.13,1.71,1.71,0,0,1,.64.34,1.37,1.37,0,0,0,.53.26,1.75,1.75,0,0,1,.77.36s.06.07.12.07.66.28.66.36.06.06.13.06.13,0,.13.09.1.09.22.09.22,0,.22.13.08.13.22.13.22,0,.22.09.06.09.13.09.13,0,.13-.09.33-.09.82-.09.82,0,.82.09.08.09.17.09.17,0,.17.1.07,0,.16-.09a.54.54,0,0,1,.26-.18.1.1,0,0,0,.1-.1A5.12,5.12,0,0,1,379.81,267.27Zm8.79-2.4a5.66,5.66,0,0,0-.09-1.54s-.09-.19-.09-.43,0-.43-.13-.43-.13-.09-.13-.3,0-.3-.09-.3-.09-.1-.09-.21,0-.21-.13-.21-.13-.08-.13-.21,0-.21-.09-.21a.09.09,0,0,1-.09-.09.42.42,0,0,0-.13-.22c-.12-.11-.13,0-.13.73,0,.52,0,.86-.09.86s-.09.13-.09.3,0,.3-.13.3-.13.08-.13.21,0,.21-.09.21-.09.07-.09.15-.2.45-.33.45-.1.07-.1.15-.2.45-.33.45a.1.1,0,0,0-.1.09.4.4,0,0,1-.12.21.41.41,0,0,1-.22.12c-.05,0-.09.06-.09.13s0,.13-.09.13-.09.06-.09.13a1,1,0,0,1-.3.42,1.25,1.25,0,0,0-.3.37s-.14.1-.3.13c-.33.05-1.09.68-1.09.89a5.78,5.78,0,0,1-1.3,1.31.09.09,0,0,0-.09.09c0,.09-.21.34-.29.34a1.22,1.22,0,0,0-.28.21.82.82,0,0,1-.35.21.11.11,0,0,0-.12.09c0,.1-.21.34-.3.34s-.3.24-.3.34a.09.09,0,0,1-.09.09c-.26,0-.46.52-.25.64a.53.53,0,0,1,.09.35c0,.2,0,.29.13.29s.13.08.13.21,0,.21.09.21.09.13.09.3,0,.3.13.3.13.08.13.21,0,.21.09.21.09.13.09.29,0,.31.13.34a.24.24,0,0,1,.13.22.29.29,0,0,0,.09.22.44.44,0,0,1,.09.3c0,.14,0,.25.09.25s.09.13.09.3,0,.3.13.3.13.09.13.3,0,.3.09.3.09.11.09.25a.52.52,0,0,0,.13.35.45.45,0,0,1,.13.31c0,.11,0,.2.09.2s.09.13.09.29,0,.31.13.34.13.16.13.31,0,.26.09.26.09.1.09.21,0,.21.08.21.1.11.12.24l0,.24v-.24c0-.13.05-.24.1-.24s.09-.1.09-.21,0-.21.09-.21.09-.08.09-.17a.25.25,0,0,1,.13-.22.24.24,0,0,0,.13-.21c0-.09,0-.16.09-.16s.09-.06.09-.13a.13.13,0,0,1,.13-.13c.08,0,.13-.08.13-.21s0-.21.09-.21.09-.1.09-.21,0-.21.09-.21.09-.08.09-.17a.25.25,0,0,1,.13-.22.24.24,0,0,0,.13-.21c0-.09,0-.16.08-.16s.1-.1.13-.21.09-.21.14-.21.09-.06.09-.13,0-.13.09-.13.09-.08.09-.17a.25.25,0,0,1,.13-.22.24.24,0,0,0,.13-.21c0-.09,0-.16.09-.16s.09-.1.09-.21,0-.21.09-.21.09-.08.09-.17a.25.25,0,0,1,.13-.22.28.28,0,0,0,.13-.25c0-.11,0-.21.09-.21s.09-.08.09-.17a.25.25,0,0,1,.13-.22.23.23,0,0,0,.13-.21.27.27,0,0,1,.09-.21.28.28,0,0,0,.09-.22.15.15,0,0,1,.13-.17c.08,0,.13-.08.13-.21s0-.21.09-.21.09-.09.09-.21a.35.35,0,0,1,.09-.26.36.36,0,0,0,.09-.26.29.29,0,0,1,.13-.26c.08,0,.13-.16.13-.34s0-.29.09-.29.09-.09.09-.2a.45.45,0,0,1,.13-.31.58.58,0,0,0,.13-.39.5.5,0,0,1,.09-.34.53.53,0,0,0,.09-.35c0-.19,0-.32.13-.35s.13-.18.13-.51a1,1,0,0,1,.09-.51A6.86,6.86,0,0,0,388.6,264.86Z" transform="translate(-321.78 -152.32)"/><path class="cls-1" d="M390.35,234.76a1.32,1.32,0,0,0-.11.64c0,.3,0,.54-.09.54s-.09.09-.09.21a.54.54,0,0,1-.13.34.5.5,0,0,0-.13.31c0,.1,0,.18-.08.18s-.13.13-.19.3-.16.3-.22.3a.12.12,0,0,0-.11.13c0,.07,0,.13-.09.13s-.09.06-.09.13a.21.21,0,0,1-.13.18c-.07,0-.13.09-.13.13a.49.49,0,0,1-.34.33.09.09,0,0,0-.09.09.49.49,0,0,1-.33.34s-.11.06-.13.13a.21.21,0,0,1-.18.13c-.07,0-.13,0-.13.09s-.06.09-.13.09-.13,0-.13.09v0c-.34.18-.68.35-1,.54l-.05,0a.7.7,0,0,0-.4.08,2.56,2.56,0,0,1-.61.4c-.07,0-.07,0,0,.07h0c0-.1-.1-.12-.2-.08a18.91,18.91,0,0,1-10,.89,19.32,19.32,0,0,1-2.34-.6c-.85-.28-1-.33-1-.06,0,0,0,0,0,0s0,0,0,0h0c.06-.07-.12-.11-.23-.12l-.06,0a.42.42,0,0,0-.18-.06c0-.05-.15-.07-.37-.07a.77.77,0,0,1-.44-.09.55.55,0,0,0-.35-.09c-.21,0-.3,0-.3-.13s-.08-.13-.22-.13-.22,0-.22-.09-.08-.09-.18-.09a.52.52,0,0,1-.3-.11c-.27-.24-.38-.32-.44-.32a1.48,1.48,0,0,1-.35-.3,1.07,1.07,0,0,0-.39-.3,1.77,1.77,0,0,1-.68-.72c0-.05-.1-.17-.22-.26a.52.52,0,0,1-.22-.32c0-.09,0-.16-.09-.16s-.09-.06-.09-.13,0-.13-.09-.13-.09-.1-.09-.21,0-.21-.13-.21-.13-.09-.13-.29a.53.53,0,0,0-.09-.35,4.7,4.7,0,0,1,0-1.8.44.44,0,0,0,.09-.31c0-.15.05-.28.13-.3a.24.24,0,0,0,.13-.21c0-.09,0-.16.09-.16a.09.09,0,0,0,.09-.09.49.49,0,0,1,.33-.34s.1-.08.13-.18a.35.35,0,0,1,.23-.22c.1,0,.18-.08.18-.13s.24-.33.43-.33.18,0,.18-.09.1-.09.22-.09.22,0,.22-.13.11-.13.43-.13.43,0,.43-.09.32-.09.78-.09a2.34,2.34,0,0,1,.83.09,1.05,1.05,0,0,0,.53.09c.34,0,.49,0,.53.13s.16.13.34.13.29,0,.29.09.1.09.22.09.22,0,.22.09.09.09.21.09a.46.46,0,0,1,.31.13.46.46,0,0,0,.31.13c.11,0,.21,0,.21.09s.1.09.22.09.22,0,.22.13.09.13.3.13.3,0,.3.09.1.09.21.09a.56.56,0,0,1,.34.13.65.65,0,0,0,.39.13.46.46,0,0,1,.32.09.76.76,0,0,0,.43.09.76.76,0,0,1,.43.09,6.92,6.92,0,0,0,2.17,0,1,1,0,0,1,.53-.09c.26,0,.47,0,.47-.09s.2-.09.43-.09.43,0,.43-.13.09-.13.3-.13.3,0,.3-.09.14-.09.3-.09.3,0,.3-.13.08-.13.22-.13.22,0,.22-.09.1-.09.22-.09a.58.58,0,0,0,.35-.13.49.49,0,0,1,.3-.13c.09,0,.17,0,.17-.09s.14-.09.3-.09.3,0,.3-.09.16-.09.35-.09.35,0,.35-.13.09-.13.3-.13a.55.55,0,0,0,.35-.09,4.68,4.68,0,0,1,1.26-.09,3.69,3.69,0,0,1,1.21.09s.14.09.3.09.3,0,.3.13a.13.13,0,0,0,.13.13c.07,0,.13,0,.13.09s.06.09.13.09a.68.68,0,0,1,.48.47c0,.07,0,.13.09.13s.09.06.09.13a.13.13,0,0,0,.13.13c.08,0,.13.08.13.21s0,.21.09.21.09.23.09.51a1.77,1.77,0,0,0,.11.68C390.44,234.61,390.44,234.67,390.35,234.76Zm-2.26-.26a.92.92,0,0,1-.11-.4c0-.13,0-.22-.13-.22a.13.13,0,0,1-.13-.13c0-.1-.15-.13-.82-.13s-.83,0-.87.13-.16.13-.36.13-.31,0-.31.09-.13.09-.3.09-.31,0-.33.09a1.73,1.73,0,0,1-.87.33c-.08,0-.15,0-.15.09s-.08.09-.18.09a.51.51,0,0,0-.31.13.56.56,0,0,1-.34.13c-.12,0-.21,0-.21.09s-.13.09-.29.09-.31,0-.34.13-.16.13-.36.13-.31,0-.31.09-.18.09-.39.09-.39,0-.39.09-.24.09-.56.09-.57,0-.6.13-.28.13-1.36.13-1.32,0-1.36-.13-.19-.13-.56-.13-.51,0-.51-.09-.16-.09-.35-.09-.35,0-.35-.07-.16-.1-.35-.13-.35-.09-.35-.14-.1-.08-.22-.08-.22,0-.22-.09-.12-.09-.26-.09-.28-.05-.31-.13a.29.29,0,0,0-.26-.13c-.11,0-.21,0-.21-.09s-.07-.09-.15-.09a1.73,1.73,0,0,1-.87-.33c0-.05-.14-.09-.28-.09a.44.44,0,0,1-.3-.09.52.52,0,0,0-.34-.09.6.6,0,0,1-.4-.13c-.07-.08-.26-.13-.56-.13s-.49,0-.56.13a.46.46,0,0,1-.31.13c-.11,0-.21,0-.21.09s-.1.09-.22.09-.22,0-.22.13,0,.13-.09.13-.09.06-.09.13a.21.21,0,0,1-.13.18c-.1,0-.13.19-.13.6s0,.55.13.55.13.09.13.3,0,.3.07.3.15.13.24.3.23.3.32.3a.14.14,0,0,1,.15.13.13.13,0,0,0,.13.13c.07,0,.13,0,.13.09s.08.09.17.09.17,0,.17.08.1.1.22.13.22.09.22.14.1.08.22.08.22,0,.22.09.1.09.22.09.22,0,.22.13.08.13.22.13.22,0,.22.09.1.09.22.09.22,0,.22.13.09.13.26.13a.45.45,0,0,1,.31.09.36.36,0,0,0,.27.09c.12,0,.21,0,.21.09s.14.09.3.09.3,0,.3.13.11.13.43.13.43,0,.43.09.23.09.51.09.53,0,.56.12.3.13,1.16.17l1.75.1a1.4,1.4,0,0,0,.73,0,3.27,3.27,0,0,1,1.05-.1c.71,0,1,0,1.13-.13a1.27,1.27,0,0,1,.63-.13c.25,0,.46,0,.46-.09s.14-.09.31-.09a.74.74,0,0,0,.44-.13.55.55,0,0,1,.34-.13.35.35,0,0,0,.26-.09.45.45,0,0,1,.31-.09c.14,0,.26,0,.26-.09s.1-.09.22-.09.22,0,.22-.13.08-.13.22-.13.22,0,.22-.09.1-.09.22-.09.22,0,.22-.09.24-.34.43-.34.18,0,.18-.09.21-.34.3-.34.3-.24.3-.34a.09.09,0,0,1,.09-.09c.1,0,.34-.21.34-.3a1.09,1.09,0,0,1,.22-.28.81.81,0,0,0,.22-.34.1.1,0,0,1,.09-.11s.09-.08.09-.17a.25.25,0,0,1,.13-.22c.09,0,.13-.17.13-.42s0-.38.11-.41S388.19,234.64,388.1,234.5Z" transform="translate(-321.78 -152.32)"/><path class="cls-1" d="M364.38,207.65c0-.16,0-.3-.09-.3s-.09-.1-.09-.21,0-.21-.13-.21-.13,0-.13-.09a.48.48,0,0,0-.34-.34.09.09,0,0,1-.09-.09c0-.15-.24-.34-.43-.34s-.18,0-.18-.09-.33-.09-.82-.09-.82,0-.82.09-.08.09-.18.09-.43.19-.43.34a.09.09,0,0,1-.09.09.41.41,0,0,0-.22.12.4.4,0,0,0-.12.21c0,.05-.06.09-.13.09s-.13.08-.13.21,0,.21-.09.21-.09.13-.09.29,0,.31-.11.33-.11.28-.11.88,0,.85.11.88.11.18.11.37,0,.34.09.34.09.08.09.17a.25.25,0,0,0,.13.22.24.24,0,0,1,.13.21c0,.09,0,.16.09.16s.09.06.09.13,0,.13.09.13.34.21.34.3.25.3.37.3a.37.37,0,0,1,.23.13c.08.1.3.13.88.13s.77,0,.77-.13.08-.13.19-.13a1.07,1.07,0,0,0,.68-.7.15.15,0,0,1,.13-.16.15.15,0,0,0,.13-.17.28.28,0,0,1,.09-.22.52.52,0,0,0,.09-.34.52.52,0,0,1,.09-.34,3.74,3.74,0,0,0,.09-1.12,2.87,2.87,0,0,0-.09-1.06S364.38,207.81,364.38,207.65Z" transform="translate(-321.78 -152.32)"/><path class="cls-1" d="M395.54,207.58a.76.76,0,0,0-.22-.5.78.78,0,0,1-.22-.37c0-.2-.47-.64-.69-.64s-.18,0-.18-.09-.08-.09-.18-.09a.51.51,0,0,1-.31-.13.85.85,0,0,0-.51-.13c-.28,0-.38,0-.38.13s-.09.13-.33.13a.51.51,0,0,0-.45.17.4.4,0,0,1-.24.17c-.06,0-.16.1-.21.21s-.15.21-.22.21a.12.12,0,0,0-.12.13c0,.07,0,.13-.09.13s-.09.1-.09.21,0,.21-.09.21-.09.13-.09.29,0,.31-.13.34-.13.23-.13,1,0,1,.13,1,.13.16.13.34,0,.29.09.29.09.11.09.25a.84.84,0,0,0,.3.56,1.33,1.33,0,0,1,.3.39s.06.08.13.08.13,0,.13.09.09.09.21.09a.29.29,0,0,1,.26.13c0,.1.19.13.61.13s.6,0,.69-.13a.46.46,0,0,1,.27-.13,2.41,2.41,0,0,0,.91-.85.63.63,0,0,1,.17-.28.62.62,0,0,0,.17-.33.22.22,0,0,1,.13-.2c.08,0,.13-.16.13-.35a.53.53,0,0,1,.09-.35,4.7,4.7,0,0,0,0-1.8A.48.48,0,0,1,395.54,207.58Z" transform="translate(-321.78 -152.32)"/><path class="cls-1" d="M339.57,202.87a2.79,2.79,0,0,0-1.18,1.37,3.38,3.38,0,0,0,0,1.41s0,.12.05.29a3.64,3.64,0,0,1,0,.72c0,.11,0,.23,0,.36,0,1.13,0,1.35.15,1.39s.13.2.08,1.2v.1a.74.74,0,0,1,0,.43c0,.52,0,.62.1.62s.13.08.13.21,0,.21.09.21.09.06.09.13c0,.37.47.09.58-.35.18-.72.61-2.4,1-4C341.48,204.11,341,202.2,339.57,202.87Z" transform="translate(-321.78 -152.32)"/><path class="cls-1" d="M415.51,211.32c0-.11,0-.21-.09-.21s-.09-.23-.09-.52,0-.47-.09-.54-.06,0-.06,0h0a.19.19,0,0,1,0-.09h0v0a1.47,1.47,0,0,1,0-.16,1.6,1.6,0,0,1,0-.32c0-.16,0-.31-.05-.47a3,3,0,0,1,.05-.58,5.24,5.24,0,0,1,0-.79c0-.49,0-.63.12-.66l0,0h0a2,2,0,0,0,.08-.87c0-.52,0-.86.09-.86s.09-.23.09-.51v-.05a.58.58,0,0,1,0-.34v0l0,0s0,0,.06,0,.05,0,.12,0c.23-.08-.11-.56-.76-1-.4-.29-.39-.28-.65-.11a5.19,5.19,0,0,0-1.31,2.86c-.17,1.11,0,1.94.93,4.1.29.68.62,1.57.74,2,.39,1.33.59,1.52.86.83,0-.08.09-.15.13-.15s.13-.94,0-1A.28.28,0,0,1,415.51,211.32Z" transform="translate(-321.78 -152.32)"/><path class="cls-1" d="M373.84,219.85c.25,0,.3,0,1.18.81,3,2.64,4.74,2.43,6.42-.76.4-.76,1.38-.77,1.59,0a1.51,1.51,0,0,1-.15,1.06c-.14.25-.06.44.17.44s.84-.61.88-.91.07-.24.15-.22.1,0,0-.09-.08-.15,0-.18,0-.06,0-.06-.1-.12-.1-.26-.16-.51-.34-.51-.09-.06-.09-.13-.08-.13-.17-.13-.17,0-.17-.09-.18-.09-.39-.09-.39,0-.39.09-.16.09-.35.09-.35,0-.35.13-.09.13-.3.13-.3,0-.3.09-.1.09-.22.09-.22,0-.22.13-.08.13-.21.13a.36.36,0,0,0-.27.09.53.53,0,0,1-.35.09c-.16,0-.31,0-.32.1a7.85,7.85,0,0,1-2.48,0c0-.05-.16-.09-.33-.09s-.3,0-.3-.09-.1-.09-.22-.09-.22,0-.22-.13-.08-.13-.2-.13a.55.55,0,0,1-.36-.21c-.2-.26-1.27-.33-1.27-.09,0,.07-.08.13-.18.13C373.37,219.16,373.29,219.84,373.84,219.85Z" transform="translate(-321.78 -152.32)"/><path class="cls-1" d="M379.09,343.88c-.12,0-.22,0-.22-.09s-.24-.34-.43-.34-.18,0-.18-.09a.48.48,0,0,0-.34-.34c-.05,0-.09-.06-.09-.13s-.08-.13-.2-.13a.46.46,0,0,1-.32-.17.4.4,0,0,0-.24-.17.12.12,0,0,1-.11-.13c0-.07-.08-.13-.17-.13s-.17,0-.17-.09-.06-.09-.13-.09-.13,0-.13-.09-.24-.34-.43-.34-.18,0-.18-.09a.48.48,0,0,0-.34-.34.09.09,0,0,1-.09-.09s-.06-.09-.13-.09-.12,0-.11-.1-.07-.12-.17-.13-.2-.07-.2-.11-.06-.08-.13-.08-.13,0-.13-.09-.21-.34-.3-.34A.43.43,0,0,1,374,340c-.26-.23-.38-.32-.43-.32s-.3-.24-.3-.34a.09.09,0,0,0-.09-.09.87.87,0,0,1-.32-.21,1,1,0,0,0-.31-.21.51.51,0,0,1-.32-.34.1.1,0,0,0-.11-.09.4.4,0,0,1-.24-.17c-.07-.09-.16-.17-.2-.17a.41.41,0,0,1-.19-.11c-.29-.25-.39-.32-.47-.32a.09.09,0,0,1-.09-.09c0-.1-.21-.34-.3-.34s-.3-.24-.3-.34-.06-.09-.13-.09-.13,0-.13-.09a.09.09,0,0,0-.09-.09c-.11,0-.2-.07-.82-.66a2.34,2.34,0,0,1-.48-.53.09.09,0,0,0-.09-.09,1.77,1.77,0,0,1-.47-.39,2,2,0,0,0-.45-.39.94.94,0,0,1-.31-.21.87.87,0,0,0-.32-.21.09.09,0,0,1-.09-.09.48.48,0,0,0-.34-.34.09.09,0,0,1-.09-.09.48.48,0,0,0-.34-.34.09.09,0,0,1-.09-.09,1.09,1.09,0,0,0-.52-.51.09.09,0,0,1-.09-.09.48.48,0,0,0-.34-.34.09.09,0,0,1-.09-.09c0-.1-.21-.34-.3-.34a.62.62,0,0,1-.3-.3c0-.09-.24-.3-.34-.3a.09.09,0,0,1-.09-.09.48.48,0,0,0-.34-.34.09.09,0,0,1-.09-.09c0-.1-.21-.34-.3-.34a.62.62,0,0,1-.3-.3c0-.09-.24-.3-.34-.3a.09.09,0,0,1-.09-.09.48.48,0,0,0-.34-.34.09.09,0,0,1-.09-.09.75.75,0,0,0-.21-.3.76.76,0,0,0-.3-.21.09.09,0,0,1-.09-.09.48.48,0,0,0-.34-.34.09.09,0,0,1-.09-.09.51.51,0,0,0-.32-.34s-.13-.12-.19-.27a2.2,2.2,0,0,0-.41-.55,1.1,1.1,0,0,1-.29-.37.09.09,0,0,0-.09-.09.48.48,0,0,1-.34-.34.09.09,0,0,0-.09-.09,2.19,2.19,0,0,1-.78-.82c0-.07,0-.12-.09-.12s-.09-.06-.09-.13,0-.13-.09-.13a.48.48,0,0,1-.34-.34.09.09,0,0,0-.09-.09c-.1,0-.34-.21-.34-.3s-.24-.3-.34-.3-.09-.08-.09-.18-.19-.42-.34-.42a.09.09,0,0,1-.09-.09.48.48,0,0,0-.34-.34.1.1,0,0,1-.09-.11.39.39,0,0,0-.17-.23.4.4,0,0,1-.17-.26.51.51,0,0,0-.22-.3c-.12-.09-.22-.21-.22-.27a.1.1,0,0,0-.09-.11.46.46,0,0,1-.34-.37,2.15,2.15,0,0,0-.77-.83.11.11,0,0,1-.1-.11c0-.16-.21-.57-.29-.57a.51.51,0,0,1-.32-.34.09.09,0,0,0-.09-.09s-.09-.08-.09-.17-.06-.17-.13-.17-.13,0-.13-.09a.48.48,0,0,0-.34-.34c-.05,0-.09-.07-.1-.15s-.2-.45-.33-.45a.12.12,0,0,1-.1-.13c0-.07,0-.13-.08-.13s-.14-.13-.22-.3-.18-.3-.23-.3-.08-.06-.08-.13,0-.13-.09-.13-.09-.08-.09-.17-.06-.17-.13-.17-.13,0-.13-.09a.48.48,0,0,0-.34-.34c-.05,0-.09-.1-.09-.21s0-.21-.09-.21a.09.09,0,0,1-.09-.09.41.41,0,0,0-.11-.21c-.24-.26-.33-.38-.33-.43a.47.47,0,0,0-.13-.18c-.07-.07-.11-.16-.08-.21s0-.08-.09-.08a.13.13,0,0,1-.14-.13c0-.07,0-.13-.09-.13a.09.09,0,0,1-.09-.09.41.41,0,0,0-.11-.21c-.26-.28-.33-.38-.33-.46a.09.09,0,0,0-.09-.09s-.09-.07-.09-.16a.52.52,0,0,0-.22-.32.54.54,0,0,1-.22-.35c0-.12-.05-.19-.13-.19a.14.14,0,0,1-.13-.15.63.63,0,0,0-.17-.34.64.64,0,0,1-.17-.36c0-.1,0-.17-.09-.17s-.34-.23-.34-.42-.06-.18-.13-.18-.13-.08-.13-.18a.66.66,0,0,0-.22-.38.65.65,0,0,1-.22-.33c0-.07,0-.13-.09-.13s-.09-.1-.09-.21,0-.21-.09-.21-.09-.06-.09-.13a.13.13,0,0,0-.13-.13.15.15,0,0,1-.13-.17.28.28,0,0,0-.09-.22.28.28,0,0,1-.09-.22.15.15,0,0,0-.13-.17c-.08,0-.13-.08-.13-.21s0-.21-.07-.21-.22-.25-.33-.53c0-.08-.09-.15-.13-.15s-.08-.08-.08-.17,0-.17-.09-.17-.09-.1-.09-.21,0-.21-.13-.21-.13-.08-.13-.21,0-.21-.09-.21-.09-.1-.09-.21,0-.21-.13-.21-.13-.08-.13-.21,0-.21-.09-.21-.09-.08-.09-.17-.06-.17-.13-.17-.13-.08-.13-.21,0-.21-.09-.21-.09-.1-.09-.21,0-.21-.09-.21-.09-.1-.09-.21,0-.21-.13-.21-.13-.09-.13-.25a.44.44,0,0,0-.09-.3.29.29,0,0,1-.09-.22.24.24,0,0,0-.13-.22.2.2,0,0,1-.13-.17c0-.16-1.11-.17-1.18,0a.29.29,0,0,1-.23.12c-.11,0-.21.05-.22.1a.18.18,0,0,1-.17.09,2.34,2.34,0,0,0-.89.91c0,.06,0,.12-.09.12s-.09.15-.09.34,0,.34-.13.34-.13.2-.13,1.28c0,.22,0,.41,0,.58,0,0,.06,0,.05.05a1.37,1.37,0,0,0-.06.21c0,.08,0,.15,0,.21h0a.49.49,0,0,0,0,.16l0,0s0,0,0,0-.09.29-.09.68c0,.55,0,.68-.13.68s-.13.14-.13.73c0,.43,0,.73-.09.73a2.32,2.32,0,0,0-.09.94,2.44,2.44,0,0,1-.13,1.14c-.11.16-.12.42-.09,1.45,0,.12,0,.23,0,.33s0,.48,0,.72c0,0,0,0,0,0a.43.43,0,0,1-.09.28.49.49,0,0,0-.12.33c0,.35,0,1.19,0,2.23,0,0,0,0,0,0s0,.18,0,.26c0,.35,0,.71,0,1.09a4.92,4.92,0,0,1,0,.79s0,0,0,0c0,.48,0,1,0,1.42h0c0,.22,0,.45,0,.67v0h0c0,.13,0,.27,0,.4h0c0,.06,0,.11,0,.17h0s0,.1,0,.15v.31c0,.28,0,.56,0,.84h0c0,.11,0,.22,0,.33h0q0,.08,0,.16h0a3.74,3.74,0,0,1,0,.72s0,0,0,0h0a4.42,4.42,0,0,0,0,1.73.5.5,0,0,1,0,.19h0a7.54,7.54,0,0,1,0,2c0,.13,0,.27,0,.41a5,5,0,0,1,0,.9v.09h0s0,0,0,0c0,.34,0,.69,0,1.07,0,.18,0,.36,0,.53s0,.46.07.69c0,0,0,0-.07.06a22.75,22.75,0,0,0,.11,3.51v0h0a.26.26,0,0,1,0,.07h0v0s0,.06,0,.09h0v.1s0,.06,0,.08,0,.34,0,.56h0s0,.05,0,.08,0,.16,0,.25h0v0c0,.08,0,.16,0,.25s0,0,0,0h0c0,.11,0,.22,0,.35a6.5,6.5,0,0,0,.09,1.91h0s0,0,0,0,0,0,0,0,0,0,0,0a4.6,4.6,0,0,1,0,.71,6.06,6.06,0,0,1,.06.92s0,0-.06.06a4.83,4.83,0,0,0,.09,1.35s.09.26.09.6v.6h8.23l-.12-.45c-.07-.25-.16-.62-.21-.83s-.22-1-.39-1.67-.48-2.09-.7-3.08-.43-2-.48-2.14c-.09-.38-.93-4.52-1.27-6.25-.24-1.21-.27-1.39-.59-3.17-.43-2.37-.49-2.7-.57-3.23,0-.3-.14-.89-.22-1.33-.13-.77-.25-1.52-.4-2.55l-.22-1.5c-.08-.54-.18-1.23-.22-1.54l-.21-1.54c-.07-.54-.16-1.18-.18-1.41s-.09-.7-.13-1-.14-1.12-.21-1.75-.17-1.44-.22-1.8c-.54-4.15-.46-5,.41-5,.54,0,.7.26.85,1.37.28,2.18.59,4.36.92,6.63.1.71.22,1.53.26,1.84s.14,1,.21,1.5.18,1.19.22,1.5.14.94.22,1.41l.21,1.33.16,1c.22,1.4.67,4,1.05,6,.1.52.46,2.37.74,3.81l.26,1.33c.14.71.83,4,1.18,5.56l.38,1.72c.06.29.17.77.25,1.07l.28,1.19c.08.35.28,1.16.44,1.79s.29,1.16.29,1.18,6.74,0,15,0c13.25,0,15,0,15-.13S379.23,343.88,379.09,343.88Z" transform="translate(-321.78 -152.32)"/><path class="cls-1" d="M380.6,252.17l-.08,0s-.09,0-.1,0h0l-.08-.06h0a.21.21,0,0,1-.16-.07,2.31,2.31,0,0,0-.35,0c-.4,0-.52,0-.52-.13s-.11-.13-.43-.13-.43,0-.43-.09-.2-.09-.43-.09-.43,0-.43-.13-.08-.13-.36-.11-.38,0-.4-.08-.19-.1-.38-.1-.34,0-.34-.09-.16-.09-.35-.09-.35,0-.35-.13-.09-.13-.3-.13-.3,0-.3-.09-.12-.09-.26-.09-.26,0-.26-.13-.09-.13-.26-.13-.26,0-.26-.09-.12-.09-.26-.09-.26,0-.26-.13-.08-.13-.22-.13-.22,0-.22-.09-.1-.09-.22-.09-.22,0-.22-.09-.1-.09-.22-.09-.22,0-.22-.13-.08-.13-.22-.13-.22,0-.22-.09-.1-.09-.22-.09-.22,0-.22-.13-.08-.13-.22-.13-.22,0-.22-.09-.07-.09-.16-.09a.24.24,0,0,1-.21-.13.25.25,0,0,0-.23-.13c-.1,0-.18,0-.18-.09s-.08-.09-.18-.09a.67.67,0,0,1-.37-.18,1.84,1.84,0,0,0-.8-.42.2.2,0,0,1-.16-.13.23.23,0,0,0-.21-.13.42.42,0,0,1-.28-.17.46.46,0,0,0-.32-.17c-.12,0-.2-.05-.2-.13a.13.13,0,0,0-.13-.13c-.07,0-.13,0-.13-.09s-.06-.09-.13-.09a.66.66,0,0,1-.34-.21.67.67,0,0,0-.39-.21c-.1,0-.19,0-.19-.09a.48.48,0,0,0-.34-.34.09.09,0,0,1-.09-.09s-.08-.09-.17-.09-.17-.06-.17-.13,0-.13-.09-.13a.52.52,0,0,1-.34-.31,1.2,1.2,0,0,0-.43-.27c-.24-.11-.43-.24-.43-.28a.49.49,0,0,0-.34-.33.09.09,0,0,1-.09-.09.48.48,0,0,0-.34-.34.09.09,0,0,1-.09-.08,3.8,3.8,0,0,0-1-.94.09.09,0,0,1-.09-.09,3.6,3.6,0,0,0-1-.94.09.09,0,0,1-.09-.09.48.48,0,0,0-.34-.34c-.05,0-.09-.06-.09-.13a1.5,1.5,0,0,0-.46-.73c-.12,0-.32-.24-.32-.38a.22.22,0,0,0-.13-.19c-.07,0-.13-.09-.13-.13a.49.49,0,0,0-.34-.33c-.05,0-.09-.09-.09-.2a.45.45,0,0,0-.17-.32.39.39,0,0,1-.17-.23.1.1,0,0,0-.08-.11s-.15-.13-.23-.3-.2-.3-.26-.3-.12-.09-.12-.21,0-.21-.09-.21a.1.1,0,0,1-.09-.11.81.81,0,0,0-.22-.34.78.78,0,0,1-.22-.37.65.65,0,0,0-.22-.34.65.65,0,0,1-.22-.33c0-.07,0-.13-.09-.13s-.09-.1-.09-.21,0-.21-.13-.21a.13.13,0,0,1-.13-.13c0-.07,0-.13-.09-.13s-.09-.07-.09-.17a.48.48,0,0,0-.13-.29.42.42,0,0,1-.13-.22.09.09,0,0,0-.09-.09s-.09-.1-.09-.21,0-.21-.12-.21-.1-.07-.08-.21,0-.21-.1-.21-.14-.07-.14-.21,0-.21-.09-.21-.09-.08-.09-.17-.06-.17-.13-.17-.13-.08-.13-.21,0-.21-.09-.21-.09-.1-.09-.21,0-.21-.09-.21-.09-.09-.09-.21a.28.28,0,0,0-.13-.25c-.08,0-.13-.16-.13-.31s0-.26-.09-.26-.09-.1-.09-.21,0-.21-.13-.21-.13-.09-.13-.3,0-.3-.09-.3-.09-.1-.09-.21,0-.21-.13-.21-.13-.09-.13-.26,0-.26-.09-.26-.09-.12-.09-.26,0-.26-.09-.26-.09-.13-.09-.3,0-.3-.13-.3-.13-.09-.13-.3,0-.3-.09-.3-.09-.12-.09-.26-.05-.28-.13-.31-.13-.16-.13-.34,0-.29-.09-.29-.09-.13-.09-.3,0-.3-.13-.3-.13-.1-.13-.34,0-.34-.09-.34-.09-.14-.09-.3,0-.32-.12-.35-.11-.14-.08-.38,0-.34-.1-.34-.14-.09-.14-.39,0-.39-.09-.39-.09-.17-.09-.39,0-.39-.13-.39-.13-.1-.13-.34,0-.34-.09-.34-.09-.19-.09-.43,0-.43-.13-.43-.13-.11-.13-.47,0-.47-.09-.47-.09-.2-.09-.43a.89.89,0,0,0-.13-.56c-.09-.09-.12-.22-.08-.46s0-.35-.09-.39-.14-.17-.14-.56,0-.5-.09-.5-.09-.24-.09-.56,0-.57-.13-.61-.13-.19-.13-.64,0-.59-.09-.59-.09-.26-.09-.6,0-.6-.13-.6-.13-.15-.13-.81c0-.48,0-.81-.09-.81s-.09-.3-.09-.72a2.52,2.52,0,0,0-.12-1,2,2,0,0,1-.1-.91,5.54,5.54,0,0,1-.22-3.65c0-1.24,0-2.73,0-3.78a2.34,2.34,0,0,1,0-.44,2.37,2.37,0,0,1,0-.56v0a.65.65,0,0,1,.07-.23.23.23,0,0,1,0-.09l0,0c0-.1.06-.19.09-.29a1.8,1.8,0,0,0,0-.25c0-.3,0-.43.08-.46s.17-.37,0-.37a.8.8,0,0,0-.28.2,6.08,6.08,0,0,0-.42.46c-.28.34-1,1.16-1.45,1.63s-.49.93-.73,3.08c-.17,1.59.1,12.74.35,14a1.65,1.65,0,0,1,0,.54,38.35,38.35,0,0,0,.58,5.12,44.47,44.47,0,0,0,1,4.49c.12.44.94,2.84,1.14,3.31l.26.62a44.61,44.61,0,0,0,4.17,8c.39.58,1.34,1.87,1.47,2l.43.51a21.63,21.63,0,0,0,5,4.35,25.9,25.9,0,0,0,4.59,2.22c1.92.72,6.47,2.24,6.72,2.24a5.38,5.38,0,0,1,1,.4,10.45,10.45,0,0,0,5.64,1.14C380,252.57,381,252.32,380.6,252.17Z" transform="translate(-321.78 -152.32)"/><path class="cls-1" d="M396.07,198.87l.07,0h0c.09,0,0-.12-.16-.18s-.22-.08-.22-.11a1.46,1.46,0,0,0-.5-.22,4.93,4.93,0,0,1-.59-.22c-.1-.07-1.24-.45-1.74-.59a12.15,12.15,0,0,0-4-.27c-.15.24.06.44.48.44.23,0,.42,0,.42.09s.27.09.64.09.65,0,.69.13.19.13.62.13.57,0,.57.09.26.09.61.09.59,0,.56.08.28.2.6.14a.44.44,0,0,1,.42.08.91.91,0,0,0,.57.13c.24,0,.44,0,.44.09s0,0,0,0h0s.07,0,.1-.05A.57.57,0,0,1,396.07,198.87Z" transform="translate(-321.78 -152.32)"/><path class="cls-1" d="M401.4,199.43c-.43.42-1,.5-2.06.27l-.51-.12,0,.11h0v0l0,.07,0,.08s.06,0,.06,0,0,.06,0,.09.18.24.26.24.3.24.3.34.06.09.13.09.13,0,.13.09.09.09.21.09a.29.29,0,0,1,.26.13.3.3,0,0,0,.27.13c.14,0,.22,0,.22-.13s.09-.13.3-.13.3,0,.3-.09.06-.09.13-.09.13-.08.13-.21,0-.21.13-.21.13-.11.13-.51C401.88,199.14,401.76,199.07,401.4,199.43Z" transform="translate(-321.78 -152.32)"/><path class="cls-1" d="M417.43,312.46h0a1.61,1.61,0,0,1,0-.26c0-.12,0-.23,0-.35a.44.44,0,0,0,0-.07h0v0h0c0-.06,0-.13,0-.2q0-.36,0-.72h0v-.22a2.06,2.06,0,0,1,0-.36c0-.1,0-.19,0-.29s0-.4,0-.6a6.79,6.79,0,0,1,0-1.3v0c0-2-.06-3.48-.11-3.52a.29.29,0,0,1-.07-.18,2.7,2.7,0,0,1-.05-.83c0-.26,0-.53,0-.79s0-.39,0-.61c0-2,0-2.31-.09-2.36a.29.29,0,0,1-.14-.26c0-.22-.18-.46-.34-.46a.09.09,0,0,1-.09-.09s-.06-.09-.13-.09-.13,0-.13-.09,0-.07-.09,0-.09,0-.09,0-.61-.11-.66,0a.29.29,0,0,1-.26.13c-.3,0-.46.19-.46.55s0,.31.28.31c.67,0,.89.5.81,1.8-.13,1.85-.55,5.49-.92,8l-.39,2.61c-.41,2.8-.91,5.76-1.25,7.53l-.23,1.2c-.19,1-.81,4.09-.92,4.58s-.23,1-.38,1.71c-.21.94-.28,1.28-.38,1.71l-.23,1-.22.94-.22.94c-.07.33-.17.73-.22.9s-.18.7-.3,1.2c-.47,2-1.47,5.88-2,7.83-.3,1.13-.58,2.16-.61,2.29l-.06.24h2.74c2.37,0,2.74,0,2.74-.13s0-.13.09-.13.09-.17.09-.39,0-.39.13-.39.13-.1.13-.39,0-.39.09-.39.09-.19.09-.43,0-.43.13-.43.13-.1.13-.43,0-.43.09-.43.09-.19.09-.42,0-.43.14-.47.13-.13.1-.39,0-.37.08-.44a.79.79,0,0,0,.12-.52c0-.23,0-.42.09-.42s.09-.23.09-.51,0-.51.13-.51.13-.11.13-.51,0-.51.09-.51.09-.23.09-.51,0-.51.13-.51.13-.12.13-.6,0-.6.09-.6.09-.26.09-.6c0-.5,0-.6.14-.6s.13-.08.08-.6,0-.61.08-.65.14-.19.14-.73,0-.68.09-.68.09-.3.09-.73c0-.59,0-.73.13-.73s.13-.15.13-.81c0-.48,0-.81.09-.81s.09-.34.09-.85c0-.67,0-.86.13-.9s.13-.24.13-1.08a2.71,2.71,0,0,1,.09-1,4,4,0,0,0,.09-1.27c0-.33,0-.57,0-.75,0,0,0,0,0-.05,0-.39,0-.49.13-.52s.13-.15.1-.83h0a9.87,9.87,0,0,1,0-1.14,3,3,0,0,1,.08-.94h0l0-.07h0c0-.06,0-.09.07-.08a23.66,23.66,0,0,0,.08-2.63h0c0-.11,0-.22,0-.33a.66.66,0,0,1,0-.18h0a.35.35,0,0,0,0,0c0-.06,0-.14,0-.2s0-.07,0-.11v-.11h0s0,0,0,0C417.43,313.21,417.43,312.84,417.43,312.46Z" transform="translate(-321.78 -152.32)"/><path class="cls-1" d="M374.66,278.61a5.3,5.3,0,0,1-.53-.88c-.26-.56-.31-.6-.44-.43a7.66,7.66,0,0,0-1,3.34c0,.65-.06.83-.16.83s-.12.16-.12.84l.07,0a1.08,1.08,0,0,0-.08.24v.08c0,.83,0,1.2-.1,1.2h0l0,0a.24.24,0,0,0,.06.1c.09.1.09.17,0,.32a26.07,26.07,0,0,0-.08,3.68l0,0c0,.07,0,.13,0,.19s0,.39,0,.6,0,.36,0,.53,0,.13,0,.2c0,.26,0,.53,0,.79s0,.35,0,.5,0,.22,0,.34l0,0v.14c0,.09,0,.19,0,.28a13,13,0,0,0,.07,1.41l0,.07c0,.13.1-.07.17-.54.13-.79.2-1.2.73-3.94l.52-2.74.22-1.16.22-1.16c0-.24.18-.95.31-1.58s.26-1.35.3-1.58.12-.61.17-.84C375.07,279.12,375.06,279.11,374.66,278.61Z" transform="translate(-321.78 -152.32)"/><path class="cls-1" d="M385.2,240.87c0-.28-.13-.35-.33-.23-1.77,1-6.92,1.46-9.9.85a19.32,19.32,0,0,1-2.34-.6c-.84-.27-1-.33-1,0,0,.14,0,.27,0,.41,0,.54.47,1.1.85,1.1.1,0,.18,0,.18.09s.1.09.22.09.22,0,.22.13.08.13.22.13.22,0,.22.09.13.09.29.09.31,0,.34.13.17.13.4.13.35,0,.35.09.26.09.61.09l.36,0h0c.14,0,.23,0,.23.06a1.79,1.79,0,0,0,.63.09h.11l.26,0h.08c.82,0,1.09,0,1.09-.08s.18-.11.6-.11a1.53,1.53,0,0,0,.66-.09.78.78,0,0,1,.44-.09c.27,0,.4,0,.44-.13s.17-.13.39-.13.34,0,.34-.09.14-.09.3-.09.3,0,.3-.13.09-.13.26-.13.26,0,.26-.09.14-.09.3-.09.3,0,.3-.12.07-.1.22-.08.22,0,.22-.1.08-.14.22-.14.22,0,.22-.09.12-.09.26-.09.28-.05.31-.13a.29.29,0,0,1,.26-.13c.11,0,.21,0,.21-.07s.1-.12.22-.19A.31.31,0,0,0,385.2,240.87Z" transform="translate(-321.78 -152.32)"/><path class="cls-1" d="M382.85,253.55a8.09,8.09,0,0,1-.93.39,19.21,19.21,0,0,1-2.21.68,16.76,16.76,0,0,1-4.31,0,15.55,15.55,0,0,1-3.87-1.6c-.72-.39-.7-.39-.77-.23a4.46,4.46,0,0,0,.21,1c.14.51.28,1,.3,1.14l.27,1.24c.12.56.28,1.41.36,1.88.16,1,.37,1.5.65,1.5a.09.09,0,0,1,.09.09c0,.15.24.34.43.34s.18.06.18.13.08.13.22.13.22,0,.22.09.1.09.22.09.22,0,.22.09.1.09.22.09.22,0,.22.13.1.13.39.13.39,0,.39.09a2.17,2.17,0,0,0,.9.09l.66,0h.17a.83.83,0,0,1,.31,0,4.17,4.17,0,0,1,.91-.06,2.37,2.37,0,0,0,.95-.09s.18-.09.39-.09.41,0,.44-.13.17-.13.39-.13.34,0,.34-.09.14-.09.3-.09.3,0,.3-.09.1-.09.22-.09.22,0,.22-.13A.13.13,0,0,1,382,260c.24,0,.37-.38.47-1.33.06-.52.16-1.31.23-1.75s.21-1.34.3-2a11.6,11.6,0,0,1,.22-1.26C383.25,253.54,383,253.45,382.85,253.55Z" transform="translate(-321.78 -152.32)"/></g></svg>